<svg width="96" height="90" viewBox="0 -8 96 90" fill="none" xmlns="http://www.w3.org/2000/svg">
<path d="M48.6768 0.797816C57.13 6.89714 69.4812 10.6044 79.04 10.8236L80.0406 10.8998V23.5559H95.3938V51.1077H85.9589L85.0345 52.0512L82.7281 54.1002C72.3593 63.3064 57.9401 74.3614 48.124 74.7808H48.0382C40.5094 74.533 27.8056 67.0327 13.1958 54.2336L10.9848 52.299L9.85072 51.1173H0.0917969V23.575H15.769V10.8903L16.7887 10.8426C29.2066 10.2613 38.6415 7.16399 47.3806 0.778756L48.0001 0.302246L48.6768 0.797816Z" fill="#7E8B98"/>
<path d="M47.9952 1.65576C56.4771 8.2316 68.0086 11.0525 78.9398 11.9103V20.8591C76.6239 20.7352 74.737 23.1654 74.737 24.6426H94.2929V50.0311H76.1665C76.5954 52.385 79.7308 53.4238 81.9894 53.2999C69.9433 64.0023 56.6391 73.3419 48.0524 73.7136C40.2186 73.4563 26.9811 64.9172 13.8771 53.4333C19.3093 53.5191 19.7954 50.0406 19.7954 50.0406H1.1543V24.6617H20.6531C20.5578 22.8128 18.8519 21.0783 16.8219 20.8782V11.9293C28.4488 11.3766 38.4841 8.59375 47.9952 1.65576Z" fill="#25282FEB"/>
<path d="M76.6891 13.8562C76.6891 15.4573 76.6891 17.6492 76.6891 19.4695C74.5543 19.9174 72.3909 22.8146 72.3909 24.6635H70.6279C70.7994 21.1563 72.7626 19.4504 74.926 18.2878C74.926 17.1823 74.926 16.5819 74.926 15.5049C65.5959 15.2762 54.722 11.264 47.965 6.70856C41.8181 10.8447 30.3437 15.2667 20.9183 15.5049C20.9183 16.1244 20.9183 17.3443 20.9183 18.2973C23.3104 19.5362 24.8638 21.9664 24.9782 24.6635H23.1293C22.7291 21.8806 21.1375 20.4035 19.1934 19.317C19.1934 17.5444 19.1934 15.8194 19.1934 13.9801C29.8481 13.3797 41.8371 9.25313 47.9841 4.49756C53.8738 9.31031 66.2154 13.0652 76.6891 13.8562Z" fill="#7E8B98"/>
<path d="M52.1599 11.4991L52.1409 13.8721L49.1389 12.3949V24.6603H46.7849C46.7849 20.6481 46.7849 12.3949 46.7849 12.3949L43.8496 13.8531L43.8687 11.5182C43.8687 11.5182 47.2614 9.81226 48.0048 9.26904C48.7863 9.83132 52.1599 11.4991 52.1599 11.4991Z" fill="#7E8B98"/>
<path d="M32.8313 24.6634C32.8313 23.4817 32.8885 21.5089 32.6026 21.1849C32.0213 22.2427 31.5162 23.5484 31.0301 24.53C30.5346 23.5388 30.0199 22.3666 29.3909 21.5565L29.3242 24.6634H27.1895V16.8486C28.3521 16.6485 28.6952 16.5437 29.3052 16.4484L30.9825 20.0794L32.7456 15.7527C33.4699 15.543 34.2037 15.381 34.947 15.2476V24.6539L32.8313 24.6634Z" fill="#7E8B98"/>
<path d="M43.6333 14.8659C43.6333 18.2777 43.6333 21.518 43.6333 22.8236C43.6143 24.6725 42.9853 24.6248 39.8403 24.6439C37.2576 24.663 36.4094 24.7011 36.3809 22.1089V16.6767C36.4285 14.6181 36.9622 14.723 39.3066 13.5508C42.9567 11.7781 43.5285 12.3785 43.6333 14.8659ZM41.5843 15.8285C41.5843 14.561 38.8968 16.1048 38.7253 16.2859C38.1821 16.8387 38.3155 20.3934 38.3346 21.8897C38.3346 22.2232 38.5061 22.614 38.9254 22.614C39.6021 22.614 40.5932 22.633 41.1555 22.614C41.3747 22.633 41.5748 22.471 41.5939 22.2518C41.5939 22.2137 41.5939 22.1661 41.5843 22.1279C41.5843 21.7277 41.5843 15.8285 41.5843 15.8285Z" fill="#7E8B98"/>
<path d="M59.8447 16.0483V22.6051C59.8447 24.6541 59.1204 24.6541 56.2614 24.6541C53.5643 24.6541 52.373 24.6541 52.373 22.6051C52.373 22.6051 52.373 16.6677 52.373 14.4567C52.373 11.4928 54.7747 12.7604 56.5949 13.4847C58.3199 14.1708 59.8447 14.4567 59.8447 16.0483ZM56.1947 15.629C55.2035 15.3335 54.5364 15.162 54.5364 16.2484C54.5364 18.0973 54.5364 21.1851 54.5364 21.1851C54.5364 22.7766 55.356 22.6146 56.2518 22.6146C56.8713 22.6146 57.7767 22.7575 57.7671 21.8045C57.7671 19.8318 57.7671 19.0884 57.7671 16.9727C57.7767 15.8196 56.8236 15.81 56.1947 15.629Z" fill="#7E8B98"/>
<path d="M68.2776 17.1224C69.3069 18.2565 69.0686 21.2014 68.1728 21.5063C69.1163 22.2116 68.9066 24.6704 68.9066 24.6704H66.8862C66.8862 22.2211 66.4097 22.1735 65.228 22.183C64.3702 22.1639 64.6085 22.183 63.6078 22.183V24.6704H61.5684V15.3784C64.3893 15.9788 67.7249 16.5125 68.2776 17.1224ZM63.6269 17.9516V20.1149C64.9611 20.1816 65.2947 20.1912 66.2191 20.2484C66.9625 20.2484 66.7909 18.7902 66.5812 18.5234C66.4288 18.2947 64.7514 18.0755 63.6269 17.9516Z" fill="#7E8B98"/>
<path d="M92.0385 27.0327H3.54102V47.5608H92.0385V27.0327Z" fill="#7E8B98"/>
<path d="M24.3748 50.0325C24.3843 51.8909 23.5457 53.654 22.0875 54.8071C30.7314 62.5456 42.3869 69.131 48.1241 69.5122C53.947 69.131 65.2879 62.1072 73.9604 54.7499C72.2164 53.206 71.7208 51.9004 71.7113 50.0325H73.4267C73.5792 52.2721 75.9522 54.0828 76.9434 54.5021C64.2206 65.014 56.1675 70.1507 48.0097 71.2276C39.5278 70.0459 31.3128 64.9663 18.9902 54.5974C20.7057 53.835 22.4402 52.0529 22.4306 50.0229L24.3748 50.0325Z" fill="#7E8B98"/>
<path d="M81.7664 51.2051C82.0332 51.4624 82.0332 51.8913 81.7664 52.1581C81.5091 52.425 81.0802 52.425 80.8134 52.1581C80.6895 52.0342 80.6132 51.8627 80.6228 51.6816C80.6228 51.3099 80.9087 51.0145 81.2803 51.005C81.4709 51.005 81.6425 51.0812 81.7664 51.2051ZM81.8426 51.1384C81.5377 50.8334 81.0421 50.8334 80.7466 51.1384C80.4512 51.4434 80.4417 51.9389 80.7466 52.2344C81.0516 52.5393 81.5472 52.5393 81.8426 52.2344C81.9856 52.0914 82.0713 51.8913 82.0713 51.6816C82.0809 51.4815 81.9951 51.2813 81.8426 51.1384ZM81.4138 51.6435C81.3661 51.6626 81.3185 51.6626 81.2708 51.6626H81.1183V51.3576H81.2518C81.3185 51.3576 81.3756 51.3671 81.4328 51.3862C81.4995 51.4338 81.5186 51.5291 81.4614 51.6054C81.4519 51.6244 81.4328 51.634 81.4138 51.6435ZM80.9849 52.1105H81.1183V51.7769H81.2327C81.2899 51.7769 81.3471 51.7864 81.3947 51.8055C81.4519 51.8532 81.4805 51.9294 81.4709 51.9961V52.1105H81.6139C81.6139 52.0914 81.6139 52.0819 81.6139 52.0628C81.6139 52.0438 81.6139 52.0152 81.6139 51.9961V51.9103C81.6139 51.8627 81.5948 51.815 81.5663 51.7769C81.5281 51.7293 81.4805 51.7007 81.4138 51.6911C81.4614 51.6816 81.4995 51.6721 81.5377 51.653C81.5948 51.6149 81.6234 51.5482 81.6234 51.4815C81.633 51.3862 81.5758 51.3004 81.49 51.2623C81.4138 51.2337 81.3375 51.2242 81.2613 51.2337H80.9563V52.0914L80.9849 52.1105Z" fill="#25282FEB"/>
<path d="M90.3146 28.769H5.48633V45.9425H90.3146V28.769Z" fill="#25282FEB"/>
<path d="M75.5062 32.8292V35.3642H73.5716C73.5716 33.7727 73.5716 32.7339 72.8092 32.7815C72.1516 32.7815 72.266 33.5439 72.2564 34.1158C72.2564 35.8121 73.1332 36.1266 74.0195 36.7842C75.2013 37.6705 75.6111 38.2423 75.6206 40.7488C75.6206 42.5976 75.0011 44.0176 72.9903 44.0176C70.6268 44.0176 70.3027 42.9502 70.3027 38.919C70.6077 38.919 71.8466 38.919 72.2564 38.919C72.2564 39.5766 72.2564 40.5391 72.2564 40.8822C72.2564 41.2253 72.1897 42.0353 72.9903 42.0353C73.4763 42.0353 73.6574 41.6351 73.6574 40.4915C73.6574 39.1858 73.2762 38.776 72.8378 38.452C71.9705 37.7944 70.3218 37.1464 70.3218 35.1355C70.3218 33.3152 70.0359 30.561 73.0093 30.5896C74.7724 30.6086 75.5158 31.5807 75.5062 32.8292Z" fill="#7E8B98"/>
<path d="M10.0242 35.86H11.4347V30.9233H13.3693V43.8939H11.4252V38.4903H10.0433V43.8939H8.08008V30.9233H10.0147C10.0242 30.9233 10.0242 35.86 10.0242 35.86Z" fill="#7E8B98"/>
<path d="M28.392 41.7306C29.0973 41.7306 29.631 41.7306 30.3267 41.7306V43.8939H26.3145V30.9233H28.3825L28.392 41.7306Z" fill="#7E8B98"/>
<path d="M34.7776 32.9723H32.8144V35.9934C33.5959 35.9934 34.0819 35.9934 34.7585 35.9934V38.2616H32.8144V41.7115C33.5387 41.7115 34.0152 41.7115 34.749 41.7115V43.8939H30.7559V30.9233H34.7681L34.7776 32.9723Z" fill="#7E8B98"/>
<path d="M37.038 30.9233C37.2953 32.2957 37.524 33.649 37.9338 35.1643C38.3722 33.6394 38.4866 32.3815 38.9154 30.9329H40.831C40.2973 33.668 39.5921 36.0315 38.8868 38.5666C38.8868 40.6441 38.8868 41.7687 38.8868 43.7796H36.9331C36.9331 41.6448 36.9331 40.1486 36.9331 38.5284C36.2851 35.9743 35.5417 33.487 35.0176 30.9329L37.038 30.9233Z" fill="#7E8B98"/>
<path d="M57.6778 30.8159C57.9161 33.3319 58.1734 35.9813 58.4402 38.4973C58.4402 38.4973 59.0597 33.0841 59.3647 30.8159H61.2898L59.4886 43.7865H57.4205L55.7051 30.8159H57.6683H57.6778Z" fill="#7E8B98"/>
<path d="M63.6292 43.7865H61.666V30.8159H63.6197L63.6292 43.7865Z" fill="#7E8B98"/>
<path d="M84.6925 30.8159C85.1213 32.7982 85.5121 34.8281 85.9504 36.7628L85.8742 30.8159H87.8279V43.6722H85.5406C85.1023 41.2515 84.6829 38.9833 84.2064 36.5531L84.2636 43.6722H82.2051V30.8159H84.6925Z" fill="#7E8B98"/>
<path d="M81.4537 33.2786C81.4537 34.5175 81.4537 41.5985 81.4537 41.5985C81.4537 42.9613 80.1386 44.1335 78.7853 44.1144C77.6607 44.0954 76.2598 43.495 76.2598 41.5699C76.2598 39.721 76.2598 36.719 76.2598 33.2309C76.2598 30.734 77.8513 30.5053 78.9568 30.4958C79.9765 30.4862 81.4537 30.8865 81.4537 33.2786ZM78.0991 33.3167C78.0991 34.975 78.0991 38.0723 78.0991 41.0362C78.0991 42.1512 79.4619 42.4562 79.4619 41.2268C79.4619 38.2438 79.4619 34.0696 79.4619 33.3262C79.481 32.4495 78.1086 32.4209 78.0991 33.3167Z" fill="#7E8B98"/>
<path d="M48.3092 30.9233C49.3194 30.9233 50.0151 31.6381 50.0247 33.1534C50.0247 35.9076 50.0247 39.2432 50.0437 41.5876C50.0723 42.8266 49.0907 43.8654 47.8518 43.8939C47.8041 43.8939 47.766 43.8939 47.7184 43.8939C47.0131 43.8939 46.0601 43.8939 44.9355 43.8939V30.9233H48.3092ZM46.8892 32.8866V41.7115C47.1751 41.7115 47.1561 41.7115 47.5849 41.7115C47.8899 41.6734 48.0996 41.397 48.0615 41.1016C48.0615 41.1016 48.0615 41.1016 48.0615 41.0921C48.0615 39.5005 48.0424 33.9921 48.0424 33.4965C48.0424 32.6197 46.8892 32.8866 46.8892 32.8866Z" fill="#7E8B98"/>
<path d="M67.5529 30.8159C68.5345 30.8159 69.659 31.3877 69.659 33.1032V41.6708C69.659 43.0622 68.8204 43.7865 67.1621 43.7865H64.4746V30.8159H67.5529ZM67.1812 32.8744C66.8286 32.8744 66.5427 32.8744 66.5427 32.8744V41.7089C67.6863 41.7089 67.8197 41.6613 67.8292 41.0895C67.8292 41.0895 67.8292 35.8097 67.8292 33.5892C67.8197 33.2175 67.5433 32.9126 67.1812 32.8744Z" fill="#7E8B98"/>
<path d="M23.4613 30.9233C25.3483 30.9233 25.5675 33.1439 25.5675 34.5067C25.5675 35.1262 25.6151 36.2888 24.5954 37.3086C25.2339 37.8804 25.5675 38.3378 25.577 39.7483C25.577 41.1016 25.577 42.2452 25.577 43.913H24.2999C24.0712 43.913 23.5089 43.7224 23.5185 43.3412C23.5185 42.5216 23.5185 40.7776 23.5185 39.8055C23.5185 39.005 23.0419 38.9192 22.594 38.9192H22.2509V43.8939H20.1543L20.1829 30.9233C21.0311 30.9233 21.2979 30.9233 23.4613 30.9233ZM22.2414 32.9819V36.4223H23.0038C23.204 36.4223 23.4327 36.2698 23.4232 35.7552C23.4422 35.1643 23.4232 34.2684 23.4232 33.7062C23.4327 32.9914 23.0038 32.9914 22.2414 32.9819Z" fill="#7E8B98"/>
<path d="M56.2596 43.7768H54.4298C54.2106 42.7284 54.1248 41.7087 53.9342 40.6413H52.5523L52.1711 43.7768H50.3223C50.7035 39.4882 51.4373 35.0852 51.8662 30.8062H54.649L56.2596 43.7768ZM53.2099 33.589L52.7811 38.2206H53.6578C53.6007 36.6768 53.4482 35.1329 53.2099 33.589Z" fill="#7E8B98"/>
<path d="M18.2193 30.9233C18.7244 35.1166 19.1723 39.329 19.6393 43.8939H17.8381C17.6856 42.7408 17.5331 41.5305 17.4378 40.7871H16.1036L15.7414 43.8939H13.8926C14.3405 39.6244 14.8075 35.3549 15.2173 30.9233H18.2193ZM16.6468 33.5537L16.4181 38.233H17.171C17.028 36.5938 16.9232 35.2405 16.6468 33.5537Z" fill="#7E8B98"/>
<path d="M44.0545 36.6479H40.4902V38.2586H44.0545V36.6479Z" fill="#7E8B98"/>
<path d="M32.8652 50.0425H35.467L36.7631 53.6068H36.9251L38.5071 50.0425H41.0993L37.8114 56.4468V63.3085L35.4289 61.9266V56.4754L32.8652 50.0425Z" fill="#7E8B98"/>
<path d="M27.4516 56.8569L33.0458 60.5451V57.9052L32.9695 57.5622L29.6244 55.618L29.4624 55.4846C29.31 55.4274 29.2051 55.2844 29.1861 55.1224V52.5207C29.1956 52.292 29.3862 52.1109 29.6149 52.1109H32.1214V50.0428H28.5285C27.5755 50.0238 26.7749 50.7767 26.7559 51.7392V55.5036C26.7559 56.0469 27.0132 56.5424 27.4516 56.8569Z" fill="#7E8B98"/>
<path d="M47.5036 65.0341L45.2259 64.1859L44.3682 63.8809C44.0728 63.7761 43.8726 63.4902 43.8631 63.1757V52.8735C43.8726 52.4447 44.2252 52.1111 44.6541 52.1207H47.5036V50.0526H43.1769C42.2239 50.0335 41.4234 50.7864 41.4043 51.749V63.9286C41.4043 64.4718 41.6711 64.9769 42.1191 65.2914C42.4907 65.5964 43.4819 66.111 47.475 67.4071V65.0531H47.5036V65.0341Z" fill="#7E8B98"/>
<path d="M51.1175 50.0425H48.6777V67.2731C50.641 66.9872 52.5661 66.4344 54.3863 65.6434V63.3943L51.127 64.4235L51.1175 50.0425Z" fill="#7E8B98"/>
<path d="M60.7321 52.1109V50.0428H56.7199C55.7669 50.0238 54.9663 50.7767 54.9473 51.7392V62.8228C54.9949 65.1673 57.0916 64.1475 57.2155 64.0618C57.7396 63.7377 60.7702 61.8698 60.7702 61.8698V59.3824L58.1875 60.831C57.1869 61.4028 57.3775 60.1067 57.3775 60.1067V57.0761H59.9411V55.0843H57.3775V53.1783L57.3679 52.8447C57.3775 52.4254 57.7206 52.0918 58.1399 52.1014H60.7226V52.1109H60.7321Z" fill="#7E8B98"/>
<path d="M64.7631 52.1083C64.5629 52.0988 64.3914 52.2608 64.3818 52.4705V52.9661C64.3914 53.1662 64.5534 53.3282 64.7631 53.3282H67.3839C68.1082 53.2996 68.7276 53.8619 68.7562 54.5862V56.4065C68.5942 57.4643 61.9898 61.1049 61.9898 61.1049L61.9707 58.6365L64.7535 57.064C67.584 55.463 65.4397 55.5202 65.4397 55.5202H63.2763C62.5806 55.5488 61.9993 55.0055 61.9802 54.3098V51.2506C61.9802 50.5835 62.6188 50.0308 63.4098 50.0308H63.8482H68.5847V52.0988L64.7631 52.1083Z" fill="#7E8B98"/>
</svg>
