<svg width="103" height="90" viewBox="0 -20 103 90" fill="none" xmlns="http://www.w3.org/2000/svg">
<path d="M47.8056 19.2127C48.4194 19.2761 50.7685 19.0645 51.2765 21.3925C53.4775 19.2761 53.0542 16.4614 51.4881 15.3609C48.8426 13.4985 46.0067 15.1916 45.7528 17.1175C45.5834 18.3449 46.303 19.0857 47.8056 19.2127ZM102.175 16.1651C100.715 16.1228 98.5349 18.5354 96.7783 18.5354C95.6143 18.5354 95.5297 17.6465 96.2281 16.1439C98.8101 10.599 95.6778 10.7684 95.0006 11.2974C95.0006 11.2974 97.2439 7.33984 93.2863 7.33984C88.3975 7.361 84.059 11.4668 81.7945 17.5619C80.9691 19.6359 79.149 24.0803 77.2231 24.6306C75.3819 25.1385 75.3819 22.7258 74.2179 22.2814C82.0273 17.0116 82.1119 12.7577 80.8844 11.3186C79.7839 10.0488 76.0803 9.64668 71.5089 14.3873C72.6306 10.1758 75.8052 7.5938 76.567 3.38223C76.9692 0.884919 75.1279 -1.67588 71.6571 2.45103C69.3079 5.24464 68.0804 10.3662 65.7947 16.8846C64.4403 20.8634 61.7313 27.9956 59.3187 28.0167C58.2605 28.0167 57.9642 27.0855 58.3028 24.4824C58.9165 19.4031 63.0223 13.562 64.4403 9.35038C65.4985 6.55678 64.4403 4.88485 63.2339 4.60972C61.6043 4.31343 59.2975 5.83722 57.6044 10.0488C56.2499 12.9482 55.1494 16.9481 54.324 21.4983C53.5621 25.2866 50.5781 32.7151 47.6786 32.3341C46.5993 32.186 47.6998 29.477 49.0331 26.7469C50.1548 24.4401 51.0648 21.6465 48.6733 21.6465C44.9909 21.6465 42.3031 29.2231 41.8586 34.8738C41.647 37.625 41.5623 40.7996 43.6787 40.7996C46.303 40.7996 49.6892 38.0483 52.8637 33.2653C53.0965 35.9319 56.4827 39.4663 63.0435 29.9638C63.1493 31.4029 63.4667 33.5616 64.5673 33.6251C64.5673 33.6251 65.5831 33.9002 66.6201 31.5511C67.6571 29.2019 68.8 26.2178 69.0328 25.6464C69.583 24.3131 70.6201 24.0803 70.7259 26.3236C70.8317 28.6516 71.4454 30.3659 73.329 30.3447C77.0326 30.3236 80.2495 26.9374 81.1596 25.6464C81.6887 27.657 86.2388 28.3554 91.1911 22.366C91.4028 23.9533 92.7996 26.2602 99.0217 21.4137C102.958 18.4296 103.297 16.2074 102.175 16.1651ZM70.7894 20.0592C70.6412 20.0804 70.3873 19.9322 70.4931 19.6783C71.001 18.3873 71.7841 17.2868 72.7999 16.4191C73.6888 15.6572 74.6623 15.1916 75.3819 15.1916C76.0591 15.1916 76.4612 15.5937 76.4189 16.2709C76.3977 16.8 76.0591 17.4561 75.4454 18.0275C73.2655 20.0592 70.9798 20.0592 70.7894 20.0592ZM91.9954 13.5408C89.8578 16.8423 90.6197 17.2233 89.0748 19.5936C87.8261 21.4983 86.0907 21.9851 85.4346 21.0116C84.7785 20.0169 85.4346 17.837 86.8949 16.1228C88.3552 14.4297 92.9689 12.0382 91.9954 13.5408ZM37.9434 35.3605C38.5359 24.2708 44.5676 15.0646 44.7581 11.1705C44.8427 9.60435 44.0173 8.37686 42.1338 8.46151C38.9804 8.60966 33.3297 13.1175 30.4938 18.8105C28.9276 14.0276 25.1393 16.8635 23.3616 18.9587C23.7002 9.96413 20.9489 9.20224 19.3405 9.26573C14.3247 9.49853 9.09729 16.2286 6.26136 21.1174C3.63706 25.6464 -3.02949 39.1065 2.28259 39.9107C3.59474 40.1012 4.92805 38.6197 5.83808 35.1489C9.30892 22.0697 13.4358 19.0857 15.1289 19.2127C19.5733 19.5513 13.8379 36.1013 11.8697 41.9424C10.7692 45.0535 9.83802 50.0904 13.3935 49.9211C17.3511 49.7518 19.023 39.7626 19.9754 34.3235C21.0548 28.3765 22.5574 26.4506 24.0812 26.5776C25.8589 26.7892 25.1182 30.3659 23.933 33.7733C22.8748 37.2653 19.2347 45.773 23.5097 46.154C27.8271 46.3021 27.6367 38.4927 28.8218 33.5616C30.6207 26.1332 32.6313 21.1385 34.8111 21.5407C37.4778 22.1121 31.2556 31.8474 30.8324 39.5509C30.5149 45.5403 33.2239 49.8788 37.1391 48.1857C41.2661 46.2387 37.6259 41.3498 37.9434 35.3605Z" fill="#7E8B98"/>
</svg>
