<svg width="112" height="90" viewBox="0 -30 112 90" fill="none" xmlns="http://www.w3.org/2000/svg">
<path d="M86.0302 27.1028C87.5921 27.2193 89.1461 27.3514 90.7002 27.4913V0.0698242H86.0302V27.1028ZM10.9146 16.9314L4.83041 0.0698242H0.393555V29.8612C1.94762 29.6437 3.50168 29.4261 5.06352 29.2241V13.0229L10.4717 28.5558C12.1734 28.3616 13.8751 28.1751 15.5845 27.9964V0.0698242H10.9146V16.9314ZM20.0758 27.569C24.3805 27.1805 28.7008 26.8541 33.0444 26.6055V22.0054C30.2704 22.1686 27.5042 22.3551 24.7457 22.5727V15.6105C26.5562 15.5949 28.9417 15.5405 31.0552 15.5638V10.9638C29.3691 10.956 26.6572 10.9871 24.7457 11.0104V4.71648H33.0444V0.0698242H20.0758V27.569ZM36.036 4.71648H40.9235V26.2325C42.4776 26.1703 44.0317 26.1237 45.5935 26.0849V4.71648H50.481V0.0698242H36.036V4.71648ZM53.4726 25.9528H58.1426V15.3307H64.4754V10.7307H58.1426V4.71648H66.5112V0.0698242H53.4726V25.9528ZM111.276 0.0698242H106.148L102.768 7.91008L99.7293 0.0698242H94.6786L100.11 14.0719L94.1813 27.8099C95.8208 27.973 97.4526 28.144 99.0921 28.3227L102.542 20.3348L105.953 29.1386C107.733 29.3639 109.504 29.6048 111.276 29.8612H111.284L105.2 14.173L111.276 0.0698242ZM74.1727 0.0698242H69.5028V26.1859C73.7454 26.3335 77.9724 26.5433 82.1839 26.823V22.223C79.5187 22.0443 76.8535 21.8967 74.1727 21.7723V0.0698242Z" fill="#7E8B98"/>
</svg>
