<svg width="105" height="90" viewBox="0 -25 105 90" fill="none" xmlns="http://www.w3.org/2000/svg">
<path fill-rule="evenodd" clip-rule="evenodd" d="M24.1345 15.7694C24.1345 22.5151 20.6338 27.849 15.3634 27.849C10.2117 27.849 6.51547 22.7423 6.51547 15.6917C6.51547 8.9461 10.0149 3.61215 15.2853 3.61215C20.4377 3.61215 24.1345 8.71887 24.1345 15.7694ZM29.9159 15.5794C29.9159 7.99541 23.9371 1.97324 15.3634 1.97324C7.4587 1.97324 0.733398 7.46129 0.733398 15.8811C0.733398 23.4651 6.71159 29.4866 15.2853 29.4866C23.19 29.4866 29.9159 24.0018 29.9159 15.5788V15.5794ZM42.6567 18.3212C42.6567 20.9891 41.3987 23.2758 39.4322 23.2758C37.5444 23.2758 36.0502 21.2555 36.0502 18.169C36.0502 15.5396 37.3083 13.2144 39.3141 13.2144C41.1625 13.2144 42.6567 15.234 42.6567 18.3212ZM56.0326 7.84262C56.0326 5.93665 54.2623 4.52693 50.9977 4.52693C46.5144 4.52693 43.0537 7.34768 43.0537 11.6539C43.0537 11.9967 43.093 12.2637 43.093 12.5308C41.9314 12.0694 40.6884 11.8364 39.4349 11.8452C35.8961 11.8452 31.6483 13.9412 31.6483 18.4766C31.6721 19.5562 31.9958 20.6091 32.5847 21.5222C33.1736 22.4354 34.0054 23.1743 34.9909 23.6597C31.8444 24.0782 30.036 25.7178 30.036 28.2708C30.036 30.8624 32.1599 32.7298 36.1316 32.2728L41.8736 31.5872C44.7453 31.2444 45.6885 32.2342 45.6885 33.6831C45.6885 36.1983 43.2504 38.2185 39.3568 38.2185C36.2496 38.2185 35.109 37.151 35.109 35.6263C35.109 35.3978 35.149 35.0929 35.149 34.8643C35.1628 34.659 35.1334 34.453 35.0625 34.2593C34.9916 34.0656 34.8807 33.8881 34.7369 33.7381C34.593 33.588 34.4192 33.4685 34.2261 33.3869C34.0331 33.3054 33.825 33.2635 33.6148 33.264C33.3684 33.2567 33.1233 33.3011 32.8959 33.3942C32.6685 33.4873 32.4641 33.6269 32.2964 33.8038C32.1288 33.9806 32.0017 34.1905 31.9237 34.4194C31.8457 34.6482 31.8187 34.8908 31.8444 35.1307C31.8444 37.6466 34.3225 39.8973 39.3962 39.8973C45.0989 39.8973 48.717 36.3145 48.717 32.199C48.717 28.9212 46.0034 27.1301 42.2672 27.5872L35.6987 28.3871C33.536 28.6541 32.8677 27.9679 32.8677 26.9009C32.8677 25.6427 34.2838 24.6528 39.1994 24.6528H39.2781C42.8569 24.6528 47.0654 22.5562 47.0654 18.0208C47.07 16.5856 46.5065 15.2044 45.4931 14.1671C45.1374 13.4304 44.9753 12.6183 45.0215 11.8047C45.0215 8.45117 47.3802 6.54586 49.819 6.54586C50.8416 6.54586 51.1531 6.69799 51.1531 7.38424C51.1531 7.57425 51.1137 7.72704 51.1137 7.95558C51.147 8.58166 51.4283 9.17038 51.898 9.5966C52.3677 10.0228 52.9886 10.253 53.6289 10.2381C54.2692 10.2232 54.8783 9.96448 55.3268 9.51692C55.7753 9.06935 56.0278 8.46823 56.0306 7.84131L56.0326 7.84262ZM68.2218 27.849L66.2947 27.6584C66.1551 27.6431 66.0272 27.5745 65.939 27.4675C65.8507 27.3606 65.809 27.2239 65.8231 27.087V0.716309L58.901 2.43161V3.23148L60.8675 3.84133C61.0042 3.88519 61.1215 3.9733 61.2002 4.09115C61.2789 4.209 61.3142 4.34957 61.3004 4.48971V26.9741C61.296 27.0787 61.2695 27.1814 61.2227 27.2756C61.1759 27.3697 61.1097 27.4534 61.0283 27.5214C60.9469 27.5894 60.852 27.6402 60.7496 27.6706C60.6472 27.701 60.5395 27.7104 60.4332 27.6982L58.6782 27.7328L56.8158 27.6982C56.7095 27.7104 56.6018 27.701 56.4994 27.6706C56.397 27.6402 56.3021 27.5894 56.2207 27.5214C56.1393 27.4534 56.0731 27.3697 56.0263 27.2756C55.9794 27.1814 55.953 27.0787 55.9486 26.9741V11.7682L49.0285 13.4835V14.2833L50.9943 14.8932C51.131 14.937 51.2483 15.0251 51.327 15.143C51.4057 15.2608 51.4411 15.4014 51.4273 15.5416V27.0883C51.4413 27.2252 51.3997 27.3619 51.3114 27.4688C51.2231 27.5758 51.0953 27.6444 50.9556 27.6597L49.3434 27.8503V29.07H68.2211V27.851L68.2218 27.849ZM104.128 13.5971V12.4159H97.4017V13.5585L98.9746 13.8635C99.5256 13.9777 99.683 14.3976 99.3288 15.2347L95.7113 23.6956C95.5539 24.0384 95.3565 24.0384 95.2384 23.6956L91.8571 15.2347C91.5022 14.3584 91.6996 13.9777 92.2493 13.8635L93.8229 13.5585V12.4159H79.8233V13.5585L81.3962 13.8635C81.9466 13.9777 82.1433 14.3976 81.7891 15.2347L78.2891 24.1527C78.1317 24.4961 77.9355 24.4961 77.8175 24.1527L74.2774 15.2347C73.9632 14.3584 74.12 13.9777 74.6709 13.8635L76.2439 13.5585V12.4159H67.356V13.5971L68.2231 13.7871C68.4887 13.8286 68.7381 13.9389 68.9454 14.1065C69.1528 14.2742 69.3106 14.493 69.4025 14.7404L75.42 29.07H78.1337L84.1512 14.7404C84.4654 13.9777 84.8182 13.6728 85.4486 13.6728H85.6841C85.9632 13.6668 86.236 13.7541 86.4575 13.9203C86.6791 14.0865 86.8361 14.3216 86.9028 14.5869L93.1959 29.4501L91.5042 33.3371C90.4035 35.9286 89.5777 36.3864 88.5551 36.3864C88.1229 36.3864 87.6499 36.31 87.1783 36.31C86.9302 36.2928 86.6812 36.325 86.4462 36.4048C86.2113 36.4846 85.9953 36.6103 85.8114 36.7742C85.6275 36.9382 85.4796 37.1369 85.3765 37.3585C85.2735 37.58 85.2174 37.8198 85.2118 38.0631C85.2118 39.0922 86.079 39.8163 87.4538 39.8163C89.4203 39.8163 91.3474 38.2917 92.9597 34.6332L101.533 15.1589C101.661 14.7906 101.89 14.464 102.195 14.2152C102.501 13.9664 102.871 13.8051 103.264 13.7492L104.128 13.5971Z" fill="#7E8B98"/>
</svg>
