<svg width="137" height="90" viewBox="0 -25 137 90" fill="none" xmlns="http://www.w3.org/2000/svg">
<path d="M15.6906 0.716309C16.0401 0.753099 16.3896 0.808285 16.7207 0.845076C19.1857 1.17619 21.338 2.15114 23.1407 3.86191C24.7779 5.40711 25.9 7.28343 26.7462 9.3621C27.5924 11.4224 28.1074 13.5746 28.4201 15.7637C28.7329 17.8239 28.8432 19.8842 28.7513 21.9629C28.6041 25.5868 27.9603 29.1187 26.4151 32.4482C25.5873 34.251 24.4836 35.8881 23.0303 37.231C21.3196 38.813 19.3145 39.8063 17.0151 40.1742C16.6655 40.2294 16.2976 40.2846 15.9481 40.303C15.9113 40.303 15.8929 40.303 15.8746 40.3398C15.0468 40.3398 14.219 40.3398 13.4096 40.3398C13.3912 40.2662 13.3176 40.303 13.2808 40.2846C12.3794 40.1926 11.4965 40.0087 10.6319 39.7328C7.87259 38.8314 5.79392 37.047 4.21193 34.6556C2.48277 32.0435 1.563 29.1187 1.04793 26.0466C0.845584 24.8509 0.716817 23.6369 0.643236 22.4044C0.643236 22.3676 0.643236 22.3308 0.606445 22.3124C0.606445 21.2087 0.606445 20.105 0.606445 19.0012C0.643236 18.9828 0.643236 18.9461 0.643236 18.9093C0.698422 17.8607 0.808794 16.8306 0.955956 15.8005C1.28707 13.777 1.74695 11.7535 2.50116 9.80359C3.36574 7.55936 4.52465 5.51748 6.2906 3.86191C8.09334 2.15114 10.2456 1.19459 12.6922 0.845076C12.9865 0.808285 13.2808 0.82668 13.5567 0.716309C14.2742 0.716309 14.9916 0.716309 15.6906 0.716309ZM27.1141 20.1234C27.0957 19.5163 27.0957 18.9277 27.0773 18.3206C27.0405 17.5112 27.0037 16.7018 26.9301 15.9108C26.8014 14.6232 26.6174 13.3355 26.3231 12.0662C25.8264 9.95075 25.1274 7.90887 23.9317 6.06934C22.6072 4.02746 20.8413 2.51905 18.5051 1.76484C16.5 1.10261 14.4581 1.02903 12.3978 1.37854C9.62015 1.85682 7.4311 3.25486 5.79392 5.53588C4.54304 7.26504 3.78883 9.21494 3.25537 11.2752C2.64832 13.6298 2.40919 16.0396 2.354 18.4678C2.31721 19.921 2.3356 21.3558 2.40919 22.8091C2.51956 24.8877 2.77709 26.9296 3.25537 28.9531C3.75204 30.995 4.45106 32.9633 5.59157 34.766C6.97122 36.9367 8.81075 38.5555 11.2941 39.3281C13.152 39.8983 15.0468 39.9535 16.9599 39.6224C18.9834 39.2545 20.7493 38.3531 22.2025 36.8999C23.5638 35.557 24.5019 33.9382 25.201 32.1723C26.2495 29.5785 26.7278 26.856 26.9669 24.0783C27.0957 22.7539 27.1325 21.4294 27.1141 20.1234Z" fill="#7E8B98"/>
<path d="M104.098 20.6568C103.326 20.6568 102.535 20.6568 101.762 20.6568C101.615 20.6568 101.56 20.6936 101.56 20.8408C101.56 21.9997 101.578 23.1586 101.56 24.3359C101.56 24.5198 101.633 24.5382 101.781 24.5566C102.296 24.5934 102.811 24.6302 103.326 24.6486C103.547 24.6486 103.491 24.7774 103.51 24.9061C103.528 25.0533 103.473 25.0901 103.326 25.0901C101.928 25.0901 100.53 25.0901 99.1317 25.0901C99.003 25.0901 98.9294 25.0533 98.9662 24.9245C98.9846 24.8142 98.911 24.667 99.1317 24.6486C99.6468 24.6302 100.143 24.575 100.64 24.5566C100.806 24.5566 100.861 24.5014 100.861 24.3175C100.861 21.8341 100.861 19.3508 100.861 16.8674C100.861 16.6834 100.824 16.6282 100.64 16.6282C100.143 16.6099 99.6468 16.5547 99.1501 16.5363C98.911 16.5179 98.9846 16.3707 98.9662 16.2419C98.9478 16.0764 99.0581 16.0948 99.1685 16.0948C100.567 16.0948 101.946 16.0948 103.344 16.0948C103.436 16.0948 103.547 16.058 103.528 16.2236C103.51 16.3339 103.602 16.5179 103.363 16.5179C102.829 16.5363 102.314 16.5915 101.781 16.6099C101.633 16.6099 101.597 16.665 101.597 16.7938C101.597 17.8423 101.597 18.8909 101.597 19.9578C101.597 20.105 101.633 20.1418 101.781 20.1418C103.344 20.1418 104.908 20.1418 106.471 20.1418C106.619 20.1418 106.655 20.0866 106.655 19.9578C106.655 18.9093 106.655 17.8607 106.655 16.7938C106.655 16.6466 106.6 16.6099 106.471 16.6099C105.956 16.5915 105.423 16.5363 104.908 16.5179C104.65 16.4995 104.761 16.3339 104.742 16.2052C104.724 16.0212 104.853 16.0948 104.926 16.0948C106.306 16.0948 107.686 16.0948 109.065 16.0948C109.157 16.0948 109.286 16.0396 109.268 16.2236C109.249 16.3523 109.323 16.5179 109.065 16.5179C108.55 16.5363 108.053 16.5915 107.557 16.6099C107.391 16.6099 107.354 16.665 107.354 16.8306C107.354 19.3324 107.354 21.8341 107.354 24.3359C107.354 24.483 107.41 24.5382 107.557 24.5382C108.072 24.5566 108.587 24.6118 109.102 24.6302C109.323 24.6302 109.268 24.759 109.286 24.8877C109.304 25.0349 109.249 25.0717 109.102 25.0717C107.704 25.0717 106.306 25.0717 104.908 25.0717C104.761 25.0717 104.724 25.0349 104.742 24.9061C104.761 24.7958 104.669 24.6486 104.908 24.6302C105.423 24.6118 105.956 24.575 106.471 24.5382C106.619 24.5382 106.674 24.483 106.674 24.3359C106.674 23.1586 106.674 21.9997 106.674 20.8224C106.674 20.6936 106.637 20.6568 106.508 20.6568C105.662 20.6568 104.889 20.6568 104.098 20.6568Z" fill="#7E8B98"/>
<path d="M51.9661 21.2087C52.4812 22.2756 52.9963 23.3241 53.5113 24.3727C53.5481 24.4646 53.6217 24.483 53.6953 24.483C54.2288 24.5382 54.7806 24.6118 55.3141 24.6486C55.5532 24.667 55.4796 24.8142 55.498 24.9429C55.5164 25.0901 55.4429 25.1085 55.3141 25.1085C54.6335 25.1085 53.9528 25.1085 53.2906 25.1085C53.1618 25.1085 53.0883 25.0717 53.0331 24.9613C52.4628 23.7656 51.8742 22.5883 51.3039 21.411C51.2487 21.2823 51.1751 21.2271 51.028 21.2271C50.2554 21.2271 49.5012 21.2271 48.7286 21.2271C48.5814 21.2271 48.5262 21.2639 48.5262 21.411C48.5262 22.386 48.5262 23.3609 48.5262 24.3543C48.5262 24.5198 48.5814 24.575 48.747 24.5934C49.2988 24.6118 49.8323 24.667 50.3657 24.6854C50.5865 24.6854 50.5313 24.8326 50.5497 24.9429C50.5681 25.0901 50.4945 25.1269 50.3657 25.1269C48.9493 25.1269 47.5329 25.1269 46.1348 25.1269C45.9877 25.1269 45.9141 25.1085 45.9325 24.9429C45.9509 24.8142 45.8957 24.6854 46.1164 24.6854C46.6315 24.667 47.1282 24.6302 47.6249 24.5934C47.772 24.5934 47.8272 24.5566 47.8272 24.3911C47.8272 21.8893 47.8272 19.3691 47.8272 16.8674C47.8272 16.7386 47.7904 16.6834 47.6616 16.6834C47.1466 16.6466 46.6315 16.5915 46.1164 16.5731C45.8957 16.5731 45.9325 16.4443 45.9141 16.2971C45.8957 16.1316 45.9693 16.1316 46.1164 16.1316C48.0295 16.1316 49.9611 16.1316 51.8742 16.1316C53.4194 16.1316 54.4863 17.3273 54.3575 18.8725C54.2288 20.2153 53.4746 21.0247 52.1501 21.2271C52.1133 21.1719 52.0581 21.1903 51.9661 21.2087ZM48.5446 18.6333C48.5446 19.2404 48.5446 19.8474 48.5446 20.4361C48.5446 20.6016 48.5814 20.6568 48.747 20.6568C49.7035 20.6568 50.6601 20.6568 51.6166 20.6568C52.0029 20.6568 52.3892 20.5832 52.7387 20.3993C53.4746 19.9946 53.8609 19.0196 53.6217 18.0815C53.401 17.1801 52.6652 16.6466 51.635 16.6282C50.6601 16.6099 49.7035 16.6282 48.7286 16.6282C48.5814 16.6282 48.5446 16.6834 48.5446 16.8122C48.5446 17.4009 48.5446 18.0263 48.5446 18.6333Z" fill="#7E8B98"/>
<path d="M87.1564 19.7738C87.4323 19.4795 87.6898 19.2036 88.0209 18.9828C88.6096 18.5782 89.235 18.3758 89.9525 18.5046C90.5779 18.6149 91.001 18.9645 91.2217 19.5531C91.2585 19.6451 91.2769 19.7187 91.3137 19.8474C91.5345 19.5715 91.7368 19.314 91.9943 19.1116C92.6934 18.5414 93.4844 18.3574 94.3489 18.5598C95.1031 18.7437 95.563 19.3691 95.6182 20.2521C95.6734 21.3007 95.6366 22.3492 95.6366 23.3977C95.6366 23.7288 95.6366 24.0783 95.6366 24.4095C95.6366 24.5198 95.655 24.575 95.7838 24.5934C96.1701 24.6302 96.538 24.6854 96.9243 24.7038C97.145 24.7222 97.053 24.851 97.0714 24.9613C97.0898 25.0901 97.0347 25.1085 96.9243 25.1085C95.9309 25.1085 94.9376 25.1085 93.9442 25.1085C93.8339 25.1085 93.7787 25.0717 93.8155 24.9797C93.8339 24.8877 93.7235 24.7406 93.9442 24.7222C94.2386 24.7038 94.5329 24.667 94.8272 24.6302C94.9376 24.6118 95.0112 24.6118 95.0112 24.4646C94.9928 23.1402 95.0296 21.7973 94.9928 20.4729C94.9928 20.2705 94.9376 20.0866 94.8824 19.8842C94.6984 19.3691 94.3305 19.0932 93.7971 19.0748C92.8773 19.0196 92.2151 19.4611 91.6816 20.1601C91.5345 20.3625 91.4609 20.5648 91.4609 20.8224C91.4793 21.9997 91.4793 23.1954 91.4609 24.3727C91.4609 24.575 91.5345 24.6302 91.7184 24.6302C92.0127 24.6486 92.3255 24.7038 92.6198 24.7038C92.8405 24.7222 92.7302 24.8693 92.7485 24.9613C92.7853 25.0901 92.7118 25.1085 92.6014 25.1085C91.6264 25.1085 90.6515 25.1085 89.6949 25.1085C89.5662 25.1085 89.511 25.0717 89.5294 24.9429C89.5478 24.8326 89.4742 24.7038 89.6765 24.7038C90.0076 24.6854 90.3204 24.6486 90.6331 24.6118C90.7619 24.5934 90.7986 24.5566 90.7986 24.4279C90.7986 23.177 90.7986 21.9077 90.7802 20.6568C90.7802 20.4177 90.7435 20.1969 90.6699 19.9578C90.4675 19.2772 89.8789 18.9277 89.1063 19.0748C88.2601 19.2404 87.6714 19.7738 87.23 20.4729C87.1932 20.5464 87.1932 20.62 87.1932 20.6936C87.1932 21.9261 87.1932 23.1586 87.1932 24.4095C87.1932 24.5934 87.2667 24.6118 87.4139 24.6302C87.7082 24.6486 87.9842 24.7038 88.2601 24.7222C88.4624 24.7406 88.3705 24.8693 88.3889 24.9613C88.4073 25.0717 88.3705 25.1269 88.2417 25.1269C87.1932 25.1269 86.1446 25.1269 85.1145 25.1269C84.9857 25.1269 84.9489 25.0717 84.9673 24.9613C84.9857 24.8693 84.8937 24.7222 85.1145 24.7038C85.5376 24.6854 85.9423 24.6302 86.3654 24.5934C86.4941 24.5934 86.5309 24.5566 86.5309 24.4095C86.5309 22.8091 86.5309 21.2087 86.5309 19.6083C86.5309 19.4427 86.4941 19.4427 86.3654 19.4979C85.8871 19.6819 85.3904 19.6819 84.8937 19.6267C84.765 19.6083 84.7282 19.5715 84.7282 19.4243C84.7282 19.2772 84.8202 19.2956 84.9121 19.2956C85.6296 19.2588 86.2366 19.038 86.7517 18.523C86.8804 18.3942 86.9908 18.523 87.1196 18.5414C87.23 18.5598 87.1932 18.6517 87.1932 18.7253C87.1564 19.0564 87.1564 19.4059 87.1564 19.7738Z" fill="#7E8B98"/>
<path d="M37.1211 20.5832C37.1211 14.8991 37.1211 9.21494 37.1211 3.53079C37.1211 3.43881 37.0659 3.31005 37.1763 3.27326C37.3051 3.23647 37.4706 3.25486 37.6178 3.27326C37.6546 3.27326 37.6546 3.32844 37.6546 3.36523C37.6546 3.43881 37.6546 3.494 37.6546 3.56758C37.6546 14.9175 37.6546 26.2674 37.6546 37.6173C37.6546 37.7093 37.7098 37.8748 37.6178 37.8932C37.489 37.93 37.3235 37.9116 37.1763 37.9116C37.1395 37.9116 37.1211 37.8748 37.1211 37.8196C37.1211 37.7645 37.1211 37.7093 37.1211 37.6357C37.1211 31.9515 37.1211 26.2674 37.1211 20.5832Z" fill="#7E8B98"/>
<path d="M70.5822 12.6181C69.9568 12.287 69.7728 12.0294 69.8464 11.5695C69.9016 11.1832 70.2511 10.9073 70.8213 10.8153C70.8397 10.7418 70.7845 10.7418 70.7478 10.705C69.9016 10.1163 69.5337 9.12296 69.7912 8.11122C70.0119 7.17306 70.8213 6.47404 71.8147 6.32688C72.4953 6.21651 73.1391 6.30848 73.7462 6.67639C73.8014 6.51083 73.8566 6.34527 73.9117 6.17971C74.0773 5.81181 74.3348 5.55427 74.7395 5.4623C74.8683 5.42551 74.9971 5.4439 75.1258 5.49909C75.273 5.57267 75.3098 5.70144 75.3098 5.8486C75.3098 5.99576 75.2546 6.10613 75.1074 6.16132C75.0155 6.19811 74.9051 6.21651 74.8131 6.2533C74.4452 6.34527 74.2613 6.56602 74.1877 6.93392C74.1693 7.0259 74.2061 7.09948 74.2613 7.17306C74.9051 8.00085 74.9971 8.88382 74.574 9.82199C74.1509 10.7418 73.3599 11.1281 72.3665 11.1648C71.8883 11.1832 71.4284 11.1464 70.9685 11.2384C70.8397 11.2568 70.711 11.2936 70.6006 11.3672C70.3615 11.5144 70.3431 11.8087 70.5822 11.9742C70.8213 12.1398 71.1157 12.1766 71.3916 12.2134C72.0538 12.3054 72.7161 12.3054 73.3783 12.4341C73.7278 12.5077 74.0773 12.5997 74.4084 12.7468C75.6409 13.2987 75.4386 14.6232 74.7763 15.2118C74.3348 15.6165 73.8014 15.8005 73.2311 15.8924C72.3665 16.0212 71.5204 16.0212 70.6926 15.7453C70.4718 15.6717 70.2695 15.5797 70.0855 15.4509C69.5889 15.1014 69.3129 14.6416 69.3497 14.0345C69.4049 13.4275 69.7728 13.0228 70.3063 12.7652C70.3799 12.6917 70.4718 12.6549 70.5822 12.6181ZM72.293 6.80515C71.1708 6.80515 70.3063 7.63294 70.3063 8.71827C70.3063 9.78519 71.1708 10.6314 72.2194 10.6314C73.3415 10.6314 74.1877 9.84038 74.1877 8.75506C74.2061 7.63294 73.3967 6.80515 72.293 6.80515ZM72.2746 15.4326C72.5321 15.4142 72.808 15.4142 73.1024 15.359C73.5806 15.267 74.0221 15.1198 74.3716 14.7519C74.8315 14.2553 74.7211 13.5562 74.1325 13.2251C73.9485 13.1331 73.7646 13.0596 73.5622 13.0228C72.9368 12.8756 72.293 12.8756 71.6675 12.7836C71.2628 12.7284 70.8949 12.8572 70.5638 13.0596C70.0855 13.3539 69.8648 13.8322 69.9935 14.3104C70.1039 14.7151 70.3799 14.9543 70.7478 15.1198C71.2076 15.3774 71.7227 15.4326 72.2746 15.4326Z" fill="#7E8B98"/>
<path d="M48.9309 3.8987C49.8139 3.8987 50.6969 3.8987 51.5798 3.8987C52.4628 3.91709 53.2354 4.19302 53.7689 4.94723C54.5415 6.08774 54.2472 7.92727 53.1802 8.69987C52.7203 9.03099 52.2237 9.15975 51.6718 9.15975C50.7153 9.15975 49.7403 9.15975 48.7838 9.15975C48.6182 9.15975 48.563 9.17815 48.563 9.3621C48.5814 10.2819 48.563 11.22 48.563 12.1398C48.563 12.287 48.5998 12.3421 48.747 12.3421C49.2988 12.3605 49.8507 12.4157 50.4025 12.4341C50.6417 12.4341 50.5681 12.5997 50.5865 12.71C50.6049 12.8756 50.5129 12.8572 50.4025 12.8572C48.9861 12.8572 47.5697 12.8572 46.1716 12.8572C46.0796 12.8572 45.9509 12.894 45.9693 12.71C45.9877 12.5813 45.9141 12.4157 46.1716 12.4157C46.6683 12.3973 47.165 12.3421 47.6616 12.3237C47.8088 12.3237 47.864 12.287 47.864 12.1214C47.864 9.60124 47.864 7.09948 47.864 4.57932C47.864 4.45056 47.8456 4.41377 47.6984 4.39537C47.1834 4.35858 46.6683 4.30339 46.1532 4.285C45.9141 4.285 45.9877 4.13784 45.9693 4.00907C45.9509 3.84351 46.0612 3.84351 46.1716 3.84351C47.073 3.8987 47.9928 3.8987 48.9309 3.8987ZM48.5446 6.54762C48.5446 7.19146 48.5446 7.83529 48.5446 8.46073C48.5446 8.5895 48.563 8.66308 48.7102 8.66308C49.6483 8.66308 50.5865 8.66308 51.5431 8.66308C52.2973 8.64469 52.8859 8.35036 53.2354 7.65134C53.4378 7.24664 53.4746 6.82355 53.4746 6.38206C53.4562 5.35193 52.7755 4.56093 51.7454 4.48735C50.7337 4.39537 49.7035 4.46895 48.6734 4.45056C48.5078 4.45056 48.5446 4.56093 48.5446 4.63451C48.5446 5.25995 48.5446 5.90379 48.5446 6.54762Z" fill="#7E8B98"/>
<path d="M76.0824 24.1887C75.089 25.6419 73.084 25.5684 72.0906 24.759C71.4836 24.2623 71.1525 23.6001 71.0237 22.8459C70.8397 21.7973 70.9133 20.7672 71.4836 19.829C72.2378 18.5598 73.9117 18.0815 75.2178 18.7253C75.5305 18.8909 75.8065 19.1116 76.0272 19.3875C76.064 19.222 76.0824 16.5915 76.0272 16.3339C75.5121 16.6099 74.9787 16.7018 74.4084 16.6282C74.2613 16.6099 74.2797 16.5179 74.2797 16.4259C74.2797 16.3339 74.2981 16.2971 74.4084 16.2971C75.1626 16.2603 75.7697 15.8924 76.2296 15.3222C76.3583 15.175 76.4503 15.2302 76.5975 15.2486C76.763 15.2854 76.7262 15.3958 76.7262 15.5061C76.7262 18.4862 76.7262 21.4662 76.7262 24.4463C76.7262 24.6302 76.763 24.7038 76.9654 24.6854C77.3333 24.667 77.6828 24.6854 78.0507 24.6854C78.1611 24.6854 78.2346 24.7038 78.2163 24.8326C78.1979 24.9429 78.253 25.0349 78.0691 25.0533C77.4804 25.0901 76.8918 25.1637 76.2847 25.2189C76.1376 25.2373 76.0824 25.2005 76.0824 25.0349C76.1008 24.759 76.0824 24.4646 76.0824 24.1887ZM76.064 21.7789C76.064 21.3007 76.064 20.8408 76.064 20.3625C76.064 20.1969 76.0272 20.0682 75.9352 19.9394C74.9787 18.5598 72.808 18.7069 71.9986 20.2153C71.4652 21.2087 71.4652 22.2756 71.8331 23.3057C72.3298 24.759 74.1141 25.274 75.3466 24.3359C75.8065 23.9864 76.1192 23.5449 76.064 22.9194C76.0456 22.5331 76.064 22.1468 76.064 21.7789Z" fill="#7E8B98"/>
<path d="M63.0033 7.74332C63.2609 7.3938 63.5 7.11788 63.7943 6.91553C64.5117 6.38206 65.3211 6.17971 66.2041 6.32688C67.1055 6.49243 67.7309 7.20985 67.7493 8.2032C67.7861 9.47247 67.7677 10.7418 67.7677 11.9926C67.7677 12.3789 67.7677 12.3789 68.154 12.4157C68.4483 12.4341 68.7611 12.4709 69.0554 12.5077C69.2761 12.5261 69.1474 12.6917 69.1658 12.7836C69.2025 12.8756 69.1474 12.9124 69.037 12.9124C67.9333 12.9124 66.8296 12.9124 65.7258 12.9124C65.6155 12.9124 65.5603 12.894 65.5971 12.7836C65.6155 12.6917 65.5235 12.5445 65.7258 12.5261C66.1305 12.4893 66.5352 12.4525 66.9399 12.4341C67.0687 12.4341 67.1055 12.3973 67.1055 12.2502C67.1055 10.9809 67.1239 9.71161 67.1055 8.42394C67.0871 7.28343 66.1857 6.6212 64.99 6.91553C64.1438 7.11788 63.5368 7.63294 63.0585 8.35036C63.0033 8.42394 63.0033 8.49752 63.0033 8.5895C63.0033 9.80359 63.0033 11.0177 63.0033 12.2318C63.0033 12.3789 63.0401 12.4157 63.1873 12.4341C63.5736 12.4525 63.9415 12.5077 64.3278 12.5261C64.5301 12.5445 64.475 12.6733 64.4934 12.7836C64.5117 12.9308 64.4198 12.9308 64.3278 12.9308C63.2241 12.9308 62.102 12.9308 60.9982 12.9308C60.8695 12.9308 60.7775 12.9308 60.7959 12.7652C60.8143 12.6365 60.7775 12.5261 60.9798 12.5261C61.3845 12.5077 61.7708 12.4709 62.1571 12.4341C62.2859 12.4341 62.3411 12.3973 62.3411 12.2318C62.3411 10.6498 62.3411 9.04938 62.3411 7.46739C62.3411 7.30183 62.3043 7.28343 62.1571 7.33862C61.6605 7.52257 61.1638 7.50418 60.6487 7.4306C60.5016 7.4122 60.52 7.32022 60.52 7.22825C60.52 7.09948 60.5935 7.09948 60.6671 7.09948C61.3845 7.08108 62.01 6.86034 62.5067 6.34527C62.6354 6.21651 62.7458 6.30848 62.8746 6.32688C63.0033 6.34527 62.9665 6.45564 62.9665 6.52923C63.0033 6.91553 63.0033 7.30183 63.0033 7.74332Z" fill="#7E8B98"/>
<path d="M64.0335 19.4243C63.5184 19.6451 62.9665 19.6635 62.4147 19.5899C62.3595 19.5899 62.2491 19.6083 62.2307 19.4795C62.2307 19.3508 62.2491 19.2772 62.4147 19.2588C63.1321 19.2404 63.7575 19.0012 64.2542 18.4862C64.383 18.3574 64.4933 18.4862 64.6221 18.5046C64.7325 18.523 64.7141 18.6333 64.7141 18.7069C64.7141 19.0748 64.7141 19.4611 64.7141 19.8842C64.9348 19.6083 65.1372 19.3691 65.3763 19.1852C66.1305 18.5965 66.9767 18.3574 67.9149 18.523C68.7611 18.6701 69.3497 19.3324 69.4417 20.2337C69.4969 20.6752 69.4785 21.1167 69.4785 21.5582C69.4785 22.4964 69.4785 23.4345 69.4785 24.3911C69.4785 24.5382 69.5153 24.5934 69.6624 24.5934C70.0119 24.6118 70.3615 24.667 70.711 24.6854C70.9317 24.7038 70.8397 24.8509 70.8581 24.9429C70.8765 25.0901 70.7845 25.0901 70.6926 25.0901C69.6256 25.0901 68.5587 25.0901 67.4918 25.0901C67.3814 25.0901 67.2894 25.1085 67.3078 24.9429C67.3262 24.8326 67.271 24.7038 67.4734 24.7038C67.8597 24.6854 68.246 24.6486 68.6323 24.6118C68.7611 24.5934 68.8162 24.5566 68.8162 24.4095C68.8162 23.1954 68.8162 21.9813 68.8162 20.7672C68.8162 20.3073 68.7243 19.8658 68.3932 19.5163C67.8965 19.0012 67.271 18.9645 66.6456 19.1116C65.8178 19.314 65.2292 19.829 64.7693 20.5097C64.7141 20.5832 64.7141 20.6568 64.7141 20.7488C64.7141 21.9629 64.7141 23.177 64.7141 24.3911C64.7141 24.5382 64.7509 24.5934 64.898 24.6118C65.2843 24.6302 65.6523 24.6854 66.0386 24.7038C66.2409 24.7038 66.1857 24.8326 66.1857 24.9429C66.2041 25.0717 66.1489 25.1085 66.0202 25.1085C64.898 25.1085 63.7759 25.1085 62.6538 25.1085C62.5434 25.1085 62.4699 25.0901 62.5067 24.9613C62.5251 24.8693 62.4147 24.7038 62.6538 24.6854C63.0769 24.667 63.5 24.6118 63.9231 24.575C64.0151 24.575 64.0703 24.5566 64.0703 24.4463C64.0703 22.7907 64.0703 21.1351 64.0703 19.4795C64.0519 19.4611 64.0519 19.4427 64.0335 19.4243Z" fill="#7E8B98"/>
<path d="M90.2652 7.24664C89.7317 7.46739 89.1799 7.50418 88.628 7.4306C88.4992 7.4122 88.444 7.37541 88.444 7.22825C88.444 7.06269 88.536 7.09948 88.628 7.09948C89.3086 7.08108 89.9341 6.86034 90.4123 6.36367C90.5595 6.21651 90.6883 6.30848 90.817 6.34527C90.9642 6.36367 90.909 6.49243 90.909 6.58441C90.909 6.93392 90.909 7.30183 90.909 7.72492C91.001 7.61455 91.0562 7.54097 91.1114 7.48578C91.9391 6.54762 92.9325 6.10613 94.1834 6.36367C95.0112 6.54762 95.4527 7.11787 95.5998 7.90887C95.6366 8.09283 95.655 8.29517 95.655 8.47913C95.655 9.71161 95.655 10.9441 95.655 12.195C95.655 12.3605 95.6918 12.4157 95.8573 12.4157C96.2069 12.4341 96.5564 12.4893 96.9059 12.5077C97.1266 12.5077 97.053 12.6549 97.0714 12.7652C97.0898 12.9124 97.0163 12.9124 96.9059 12.9124C95.8206 12.9124 94.7352 12.9124 93.6683 12.9124C93.5579 12.9124 93.4844 12.9124 93.5027 12.7652C93.5211 12.6549 93.466 12.5261 93.6683 12.5077C94.073 12.4893 94.4593 12.4341 94.8456 12.4157C94.9744 12.4157 95.0112 12.3789 95.0112 12.2502C95.0112 10.9625 95.0296 9.69322 95.0112 8.40555C94.9928 7.26504 94.0546 6.6212 92.8589 6.91553C92.0495 7.11788 91.4425 7.63294 90.9826 8.33197C90.9458 8.40555 90.9274 8.46073 90.9274 8.53431C90.9274 9.7668 90.9274 10.9993 90.9274 12.2134C90.9274 12.3605 90.9642 12.3973 91.1114 12.3973C91.4793 12.4157 91.8656 12.4709 92.2335 12.4893C92.4542 12.5077 92.399 12.6365 92.399 12.7652C92.4174 12.9308 92.3071 12.894 92.2151 12.894C91.1114 12.894 89.9892 12.894 88.8855 12.894C88.7752 12.894 88.6832 12.894 88.7016 12.7284C88.72 12.6181 88.6648 12.4893 88.8671 12.4709C89.2718 12.4525 89.6765 12.4157 90.0812 12.3789C90.1916 12.3789 90.2652 12.3789 90.2652 12.2134C90.2652 10.5762 90.2652 8.93901 90.2652 7.24664Z" fill="#7E8B98"/>
<path d="M81.6746 7.24664C81.1411 7.46739 80.6076 7.50418 80.0558 7.4306C79.9086 7.4122 79.8718 7.35701 79.8718 7.22825C79.8718 7.06269 79.9822 7.09948 80.0742 7.09948C80.7548 7.08108 81.3618 6.84195 81.8585 6.36367C82.0057 6.21651 82.1161 6.29009 82.2632 6.32688C82.4104 6.36367 82.3552 6.49243 82.3552 6.58441C82.3552 8.47913 82.3552 10.3738 82.3552 12.2686C82.3552 12.4525 82.392 12.5077 82.5759 12.4893C82.9254 12.4709 83.275 12.4893 83.6429 12.4893C83.7348 12.4893 83.8268 12.4709 83.8084 12.6181C83.79 12.7284 83.8636 12.8572 83.6613 12.8756C83.0542 12.9308 82.4472 12.986 81.8401 13.0412C81.693 13.0596 81.7114 12.9676 81.7114 12.8756C81.7114 12.5077 81.7114 12.1582 81.7114 11.7351C81.509 11.9558 81.3435 12.1582 81.1595 12.3237C80.4053 12.986 79.5223 13.2619 78.529 13.0964C77.646 12.9492 77.0389 12.2502 76.9654 11.2936C76.9102 10.3554 76.947 9.43568 76.947 8.49752C76.947 8.09283 76.947 7.70653 76.947 7.28343C76.6343 7.37541 76.3399 7.44899 76.0456 7.44899C75.8617 7.44899 75.6961 7.4306 75.5121 7.4122C75.365 7.39381 75.3282 7.33862 75.3282 7.20985C75.3282 7.04429 75.4202 7.08108 75.5121 7.08108C76.156 7.06269 76.6894 6.82355 77.1125 6.36367C77.2597 6.21651 77.3701 6.29009 77.4988 6.30848C77.646 6.34527 77.5908 6.47404 77.5908 6.56602C77.5908 8.00085 77.5908 9.43568 77.5908 10.8705C77.5908 11.3304 77.6828 11.7903 78.0139 12.1398C78.529 12.6733 79.1544 12.6733 79.8166 12.5077C80.5892 12.3054 81.1595 11.8271 81.6194 11.1832C81.6562 11.1281 81.6746 11.0729 81.6746 10.9993C81.6746 9.7484 81.6746 8.51592 81.6746 7.24664Z" fill="#7E8B98"/>
<path d="M121.96 23.9864C121.758 24.1519 121.592 24.3543 121.408 24.5198C120.636 25.1821 119.753 25.458 118.76 25.2556C117.913 25.0901 117.398 24.5198 117.251 23.6737C117.214 23.4897 117.214 23.2873 117.214 23.1034C117.214 21.9629 117.214 20.8224 117.214 19.6819C117.214 19.6083 117.214 19.5347 117.214 19.4427C116.754 19.6267 116.295 19.6451 115.835 19.5899C115.743 19.5715 115.651 19.5899 115.596 19.5163C115.522 19.4059 115.614 19.2588 115.743 19.2588C116.387 19.2404 116.938 18.9828 117.38 18.523C117.527 18.3758 117.637 18.4494 117.766 18.4862C117.932 18.523 117.858 18.6517 117.858 18.7437C117.858 20.2153 117.858 21.687 117.858 23.1586C117.858 23.9496 118.3 24.575 118.98 24.7222C119.734 24.8877 120.415 24.6486 121.041 24.2071C121.188 24.0967 121.316 23.968 121.464 23.8576C121.795 23.5449 121.96 23.2138 121.942 22.7171C121.905 21.6318 121.923 20.5464 121.923 19.4243C121.556 19.5715 121.188 19.6451 120.801 19.6267C120.617 19.6267 120.452 19.5899 120.268 19.5899C120.121 19.5899 120.121 19.4979 120.121 19.3875C120.121 19.2404 120.213 19.2772 120.305 19.2588C121.022 19.2404 121.648 19.0012 122.144 18.4862C122.273 18.3574 122.383 18.4678 122.512 18.4862C122.659 18.5046 122.604 18.6149 122.604 18.6885C122.604 20.6016 122.604 22.4964 122.604 24.4095C122.604 24.6302 122.659 24.6854 122.862 24.667C123.211 24.6486 123.561 24.667 123.892 24.667C123.984 24.667 124.057 24.6854 124.021 24.7958C124.002 24.8877 124.113 25.0165 123.91 25.0349C123.322 25.0901 122.733 25.1453 122.163 25.2005C121.997 25.2189 121.942 25.1637 121.96 24.9981C121.96 24.667 121.96 24.3359 121.96 23.9864Z" fill="#7E8B98"/>
<path d="M60.0969 24.3175C59.7658 24.6118 59.3979 24.8877 58.9932 25.0533C58.3309 25.3292 57.6687 25.4212 56.9697 25.2556C56.3626 25.0901 55.9027 24.7406 55.7556 24.0967C55.6084 23.3977 55.7924 22.8091 56.3442 22.3308C56.8777 21.8709 57.5399 21.687 58.2022 21.5582C58.7724 21.4478 59.3427 21.411 59.9129 21.3926C60.0601 21.3926 60.0785 21.3374 60.0785 21.2087C60.0601 20.9328 60.0785 20.6568 60.0417 20.3809C59.9497 19.5531 59.453 19.0748 58.6069 19.0012C58.4229 18.9828 58.2573 18.9828 58.0734 19.0012C57.4663 19.038 57.0249 19.3324 56.7857 19.921C56.7489 19.9946 56.7121 20.0866 56.6569 20.1601C56.5466 20.3441 56.381 20.3625 56.1971 20.3073C55.9947 20.2337 55.9395 20.0866 55.9579 19.8842C56.0131 19.5347 56.2339 19.2956 56.4914 19.0748C56.8225 18.7805 57.2272 18.6149 57.6503 18.5414C58.147 18.4494 58.6252 18.4494 59.1219 18.5414C60.0417 18.7253 60.5752 19.3324 60.6487 20.2705C60.7407 21.3558 60.6671 22.4596 60.6855 23.5633C60.6855 23.7472 60.6855 23.9312 60.7223 24.1151C60.8143 24.483 60.9431 24.6118 61.2742 24.6486C61.5869 24.667 61.8076 24.5382 61.918 24.2071C61.9732 24.0232 62.0468 24.0416 62.1755 24.1151C62.2859 24.1703 62.2859 24.2255 62.2491 24.3175C62.102 24.851 61.7524 25.1453 61.219 25.1821C60.6119 25.2005 60.2624 24.9797 60.0601 24.4095C60.1337 24.3543 60.1153 24.3359 60.0969 24.3175ZM60.0785 22.8275C60.0785 22.5699 60.0601 22.3308 60.0785 22.0733C60.0785 21.9077 60.0417 21.8525 59.8761 21.8709C59.3427 21.9077 58.7908 21.9445 58.2573 22.0549C57.7239 22.1652 57.2088 22.3308 56.7857 22.7171C56.3994 23.085 56.2523 23.5265 56.3994 24.0416C56.5466 24.5382 56.9697 24.7406 57.4479 24.7958C58.3861 24.9061 59.1771 24.5566 59.8945 23.9496C60.0417 23.8208 60.0969 23.692 60.0785 23.5081C60.0601 23.269 60.0785 23.0482 60.0785 22.8275Z" fill="#7E8B98"/>
<path d="M133.972 21.7789C133.181 21.7789 132.39 21.7789 131.618 21.7789C131.434 21.7789 131.397 21.8341 131.415 21.9997C131.452 22.8459 131.636 23.6185 132.298 24.2071C133.034 24.8693 134.396 25.0165 135.26 24.5198C135.61 24.3175 135.867 24.0416 136.033 23.6737C136.161 23.4161 136.309 23.6185 136.437 23.6369C136.621 23.6737 136.493 23.8024 136.456 23.8576C136.051 24.851 135.242 25.2556 134.23 25.3292C132.39 25.458 131.011 24.2991 130.827 22.4596C130.735 21.5766 130.827 20.712 131.268 19.921C132.114 18.3942 133.972 18.1367 135.168 18.7437C136.125 19.2404 136.529 20.0866 136.621 21.1167C136.64 21.3191 136.695 21.6134 136.585 21.7421C136.474 21.8709 136.18 21.7789 135.978 21.7789C135.278 21.7789 134.616 21.7789 133.972 21.7789ZM133.678 21.2455C134.322 21.2455 134.947 21.2455 135.591 21.2455C135.941 21.2455 135.941 21.2455 135.904 20.896C135.702 19.222 134.156 18.6333 132.887 19.13C132.004 19.4795 131.618 20.2337 131.434 21.1167C131.397 21.2823 131.526 21.2271 131.599 21.2271C132.298 21.2455 132.997 21.2455 133.678 21.2455Z" fill="#7E8B98"/>
<path d="M57.6135 9.61964C56.8225 9.61964 56.0315 9.61964 55.2405 9.61964C55.075 9.61964 55.0198 9.65643 55.0382 9.82199C55.0566 10.2267 55.1117 10.613 55.2405 10.9809C55.7004 12.3054 56.8409 12.7284 58.0182 12.6181C58.7724 12.5445 59.3427 12.1582 59.6738 11.4776C59.7842 11.2384 59.9129 11.4592 60.0417 11.4592C60.1889 11.4776 60.1337 11.5695 60.0969 11.6615C59.8393 12.3237 59.3979 12.7652 58.7172 13.0044C57.9446 13.2619 57.1536 13.2619 56.381 12.986C55.59 12.71 55.0382 12.1582 54.7254 11.3856C54.2472 10.1899 54.2656 8.9942 54.8358 7.85369C55.7004 6.14292 58.147 5.75662 59.4346 7.11788C60.0049 7.70652 60.2256 8.44234 60.2256 9.25173C60.2256 9.65643 60.2256 9.65643 59.8393 9.65643C59.0667 9.61964 58.3493 9.61964 57.6135 9.61964ZM55.075 9.06778C55.0933 9.06778 55.0933 9.08617 55.1117 9.08617C56.5466 9.08617 57.9998 9.08617 59.4346 9.08617C59.5818 9.08617 59.5634 9.01259 59.5634 8.92061C59.453 7.22825 58.0734 6.56602 56.8409 6.86034C55.866 7.11788 55.1853 7.96406 55.075 9.06778Z" fill="#7E8B98"/>
<path d="M125.235 24.0967C125.235 24.4095 125.235 24.7222 125.235 25.0349C125.235 25.1085 125.29 25.2189 125.124 25.2005C125.014 25.1821 124.867 25.274 124.83 25.0533C124.756 24.5382 124.664 24.0232 124.572 23.5081C124.536 23.2873 124.499 23.0666 124.462 22.8275C124.462 22.7723 124.352 22.6619 124.499 22.6435C124.609 22.6251 124.738 22.5147 124.848 22.6987C124.996 22.9562 125.143 23.1954 125.308 23.4529C125.621 23.9312 125.97 24.3727 126.522 24.6118C127.203 24.9061 127.884 24.9245 128.546 24.5934C129.355 24.1887 129.392 23.1586 128.656 22.6435C128.233 22.3676 127.755 22.2388 127.258 22.1101C126.725 21.9629 126.173 21.8341 125.695 21.5582C124.94 21.1351 124.646 20.6016 124.756 19.8474C124.848 19.1852 125.345 18.6701 126.118 18.5046C127.037 18.3022 127.884 18.4126 128.583 19.1116C128.675 19.2036 128.748 19.2956 128.859 19.4427C128.859 19.1116 128.859 18.8357 128.859 18.5598C128.859 18.4862 128.84 18.3758 128.969 18.4126C129.079 18.431 129.226 18.3206 129.245 18.5414C129.355 19.2772 129.484 20.013 129.613 20.7488C129.631 20.8224 129.65 20.8776 129.539 20.896C129.429 20.896 129.318 21.0063 129.226 20.8408C129.061 20.5464 128.914 20.2705 128.73 19.9762C128.417 19.4795 128.012 19.0932 127.405 18.9828C126.89 18.8909 126.375 18.8909 125.897 19.13C125.179 19.4979 125.106 20.4177 125.731 20.896C126.136 21.2087 126.633 21.3374 127.129 21.4662C127.755 21.6318 128.38 21.7605 128.932 22.0917C129.815 22.5883 130.054 23.7472 129.429 24.5382C129.079 24.9797 128.583 25.2005 128.049 25.274C126.89 25.4212 125.934 25.1085 125.253 24.0967C125.271 24.1151 125.253 24.1151 125.235 24.0967Z" fill="#7E8B98"/>
<path d="M115.485 21.8893C115.485 22.5147 115.375 23.1402 115.08 23.692C114.492 24.8326 113.517 25.3292 112.284 25.3292C111.089 25.3292 110.169 24.8142 109.599 23.7288C109.341 23.269 109.231 22.7539 109.194 22.2388C109.139 21.5766 109.212 20.9327 109.47 20.3257C109.911 19.2772 110.684 18.6517 111.806 18.4862C113.039 18.3022 114.271 18.7069 114.97 19.8658C115.338 20.4913 115.485 21.1719 115.485 21.8893ZM114.841 21.9077C114.841 21.6318 114.823 21.3742 114.768 21.1167C114.731 20.9511 114.694 20.7672 114.639 20.6016C114.308 19.6635 113.517 19.0196 112.579 18.9828C111.438 18.9277 110.592 19.3691 110.169 20.3625C109.709 21.411 109.709 22.478 110.224 23.5081C110.942 24.9613 112.965 25.2556 114.087 24.0967C114.657 23.4713 114.823 22.6987 114.841 21.9077Z" fill="#7E8B98"/>
<path d="M78.1059 21.7605C78.1243 21.3007 78.1795 20.8776 78.345 20.4545C78.7681 19.3324 79.5591 18.6701 80.7364 18.5046C81.8401 18.3574 82.8335 18.5965 83.6061 19.4611C84.066 19.9762 84.2867 20.5832 84.3787 21.2455C84.4891 22.11 84.4155 22.9378 83.9924 23.7288C83.3853 24.8877 82.3 25.366 81.1411 25.3292C79.2096 25.274 78.1795 23.8392 78.1059 22.1101C78.1059 21.9997 78.0875 21.8709 78.1059 21.7605ZM78.7681 22.0365C78.7865 22.1836 78.8049 22.386 78.8417 22.5883C78.8601 22.7907 78.9153 22.9746 78.9889 23.1586C79.3384 24.1519 80.1478 24.759 81.1411 24.7958C82.2448 24.8326 83.091 24.3175 83.4957 23.3241C83.9004 22.3492 83.9004 21.3558 83.4773 20.3809C82.7415 18.6701 80.5892 18.6333 79.6143 19.6083C78.9337 20.2705 78.7681 21.1167 78.7681 22.0365Z" fill="#7E8B98"/>
<path d="M89.7685 31.5652C89.7685 32.0619 89.7685 32.577 89.7685 33.0737C89.7685 34.0302 89.7685 35.0052 89.7869 35.9617C89.7869 36.3296 89.7869 36.6975 89.8053 37.0654C89.8053 37.1942 89.7869 37.2494 89.6397 37.2494C89.2718 37.2494 89.2718 37.2494 89.2718 36.8815C89.2718 34.8764 89.2718 32.8897 89.2718 30.8846C89.2718 30.7191 89.3086 30.6639 89.4926 30.6639C89.7501 30.6455 89.9157 30.7374 90.0628 30.9582C91.2585 32.7057 92.491 34.4349 93.7051 36.1825C93.7419 36.2376 93.7971 36.2928 93.8523 36.3848C93.9075 36.2928 93.8891 36.2193 93.8891 36.1457C93.8891 34.4165 93.8707 32.669 93.8707 30.9398C93.8707 30.8478 93.8155 30.7191 93.9258 30.6823C94.073 30.6455 94.2202 30.6639 94.3673 30.6823C94.4225 30.6823 94.4041 30.7742 94.4041 30.811C94.4041 32.9081 94.4041 34.9868 94.4041 37.0838C94.4041 37.2126 94.3673 37.231 94.2386 37.2494C93.9442 37.2862 93.7603 37.1758 93.5947 36.9183C92.3806 35.1707 91.1665 33.4232 89.9525 31.6756C89.9157 31.6388 89.8973 31.602 89.8605 31.5468C89.8053 31.5652 89.7869 31.5652 89.7685 31.5652Z" fill="#7E8B98"/>
<path d="M80.1662 34.5453C80.6444 35.4283 81.1411 36.3296 81.6194 37.2126C81.5826 37.231 81.5642 37.231 81.5458 37.231C81.1595 37.3046 80.9572 37.139 80.7732 36.7895C80.4421 36.1089 80.0558 35.465 79.6879 34.8028C79.6143 34.674 79.5407 34.6189 79.3752 34.6373C78.7865 34.6373 78.1795 34.6373 77.5908 34.6373C77.462 34.6373 77.4253 34.674 77.4253 34.8028C77.4253 35.557 77.4253 36.3112 77.4253 37.047C77.4253 37.2126 77.3885 37.2494 77.2229 37.231C76.855 37.231 76.855 37.231 76.855 36.8631C76.855 34.858 76.855 32.8713 76.855 30.8662C76.855 30.6823 76.9102 30.6271 77.0941 30.6455C77.9771 30.6639 78.8785 30.6087 79.7615 30.6823C80.2213 30.7191 80.6444 30.8478 81.0123 31.1605C81.693 31.7492 81.7849 33.6991 80.6628 34.3245C80.5157 34.4165 80.3501 34.4717 80.1662 34.5453ZM77.4253 32.6322C77.4253 33.0737 77.4253 33.5335 77.4253 33.975C77.4253 34.0854 77.4436 34.1406 77.5724 34.1406C78.2163 34.1406 78.8601 34.1406 79.5223 34.1406C80.2397 34.1222 80.718 33.7911 80.902 33.2208C80.9939 32.9633 80.9939 32.6874 80.9755 32.4114C80.902 31.6572 80.5157 31.2525 79.7799 31.1605C79.044 31.087 78.2898 31.1421 77.554 31.1238C77.4253 31.1238 77.4436 31.2157 77.4436 31.2893C77.4253 31.7492 77.4253 32.1907 77.4253 32.6322Z" fill="#7E8B98"/>
<path d="M69.9752 33.9566C69.9752 32.9265 69.9752 31.8964 69.9752 30.8662C69.9752 30.7007 70.0119 30.6455 70.1775 30.6639C71.0053 30.6823 71.8331 30.6455 72.6609 30.6823C73.9853 30.7374 74.7211 31.3629 74.9971 32.669C75.1994 33.6623 75.1994 34.674 74.8499 35.649C74.5188 36.6239 73.8014 37.1206 72.7896 37.2126C71.8883 37.2862 71.0053 37.231 70.1039 37.2494C69.9384 37.2494 69.9568 37.1574 69.9568 37.047C69.9752 36.0169 69.9752 34.9868 69.9752 33.9566ZM70.5454 33.9382C70.5454 34.8212 70.5454 35.7042 70.5454 36.5872C70.5454 36.7343 70.5822 36.7895 70.7294 36.7895C71.318 36.7711 71.8883 36.7895 72.4769 36.7895C73.4519 36.7895 74.1141 36.2928 74.39 35.3547C74.6476 34.4717 74.6476 33.5887 74.4452 32.7057C74.2245 31.7492 73.691 31.2893 72.7161 31.1973C72.0538 31.1237 71.3916 31.1973 70.7294 31.1789C70.5638 31.1789 70.527 31.2157 70.5454 31.3813C70.5454 32.1907 70.5454 33.0553 70.5454 33.9382Z" fill="#7E8B98"/>
<path d="M59.5082 33.975C59.5082 35.0052 59.5082 36.0169 59.5082 37.047C59.5082 37.2126 59.4714 37.2494 59.3059 37.2494C58.938 37.231 58.938 37.2494 58.938 36.8815C58.938 36.0353 58.938 35.2075 58.938 34.3613C58.938 34.2142 58.9012 34.1774 58.754 34.1774C57.5031 34.1774 56.2706 34.1774 55.0198 34.1774C54.8542 34.1774 54.8542 34.2326 54.8542 34.3613C54.8542 35.2443 54.8542 36.1273 54.8542 37.0102C54.8542 37.2126 54.799 37.2862 54.6151 37.2494C54.5415 37.231 54.4863 37.2494 54.4127 37.2494C54.3207 37.2494 54.284 37.2126 54.284 37.1206C54.284 37.0838 54.284 37.0286 54.284 36.9919C54.284 34.9684 54.284 32.9449 54.284 30.9214C54.284 30.7191 54.3207 30.6639 54.5415 30.6639C54.8542 30.6823 54.8542 30.6639 54.8542 30.9766C54.8542 31.8228 54.8542 32.669 54.8542 33.5151C54.8542 33.6623 54.891 33.6991 55.0382 33.6991C56.289 33.6991 57.5215 33.6991 58.7724 33.6991C58.938 33.6991 58.938 33.6439 58.938 33.5151C58.938 32.6322 58.938 31.7676 58.938 30.8846C58.938 30.7191 58.9748 30.6455 59.1587 30.6639C59.5082 30.6823 59.5082 30.6639 59.5082 31.0134C59.5082 32.0067 59.5082 32.9817 59.5082 33.975Z" fill="#7E8B98"/>
<path d="M83.1278 33.9382C83.1278 32.9081 83.1278 31.8964 83.1278 30.8662C83.1278 30.7191 83.1462 30.6455 83.3301 30.6455C84.7282 30.6455 86.1446 30.6639 87.5427 30.6455C87.7818 30.6455 87.7266 30.7742 87.7266 30.903C87.7266 31.0318 87.7266 31.1238 87.5427 31.1238C86.3102 31.1054 85.0777 31.1237 83.8636 31.1054C83.6981 31.1054 83.6613 31.1421 83.6613 31.3077C83.6797 32.0251 83.6797 32.7425 83.6613 33.4784C83.6613 33.6623 83.7164 33.6807 83.8636 33.6807C84.9121 33.6807 85.9607 33.6807 87.0092 33.6623C87.2483 33.6623 87.2116 33.7911 87.23 33.9382C87.2483 34.1038 87.1932 34.159 87.0276 34.159C85.9791 34.1406 84.9305 34.159 83.882 34.159C83.7348 34.159 83.6613 34.1774 83.6797 34.3613C83.6981 35.0971 83.6981 35.8329 83.6797 36.5688C83.6797 36.7343 83.7348 36.7711 83.882 36.7711C85.1329 36.7711 86.3838 36.7711 87.6346 36.7711C87.837 36.7711 87.8554 36.8447 87.8554 37.0102C87.8554 37.1758 87.8554 37.2494 87.6346 37.2494C86.1998 37.231 84.765 37.2494 83.3301 37.2494C83.183 37.2494 83.1278 37.2126 83.1462 37.047C83.1278 36.0169 83.1278 34.9684 83.1278 33.9382Z" fill="#7E8B98"/>
<path d="M100.53 37.3414C99.7939 37.3414 99.0949 37.2126 98.5247 36.6975C98.3591 36.5504 98.2303 36.3848 98.1016 36.2192C98.028 36.1273 98.0464 36.0905 98.1384 36.0169C98.4511 35.8146 98.4511 35.8146 98.6718 36.1089C99.0397 36.5872 99.518 36.8263 100.125 36.8815C100.603 36.9183 101.1 36.9183 101.56 36.7343C102.038 36.5504 102.314 36.1825 102.332 35.6674C102.369 35.1339 102.13 34.766 101.652 34.5453C101.192 34.3245 100.677 34.2326 100.18 34.1038C99.7755 33.9934 99.3709 33.883 99.0213 33.6439C98.3959 33.2392 98.1752 32.669 98.2855 31.9515C98.3775 31.3077 98.7822 30.903 99.3892 30.7191C100.088 30.4983 100.787 30.4983 101.468 30.7007C101.965 30.8478 102.333 31.1605 102.627 31.602C102.7 31.7124 102.682 31.7492 102.572 31.8228C102.277 32.0067 102.277 32.0251 102.057 31.7308C101.597 31.1054 100.934 30.9766 100.217 31.0134C99.9595 31.0318 99.702 31.0686 99.4628 31.1789C98.6534 31.5284 98.5247 32.5954 99.2053 33.1472C99.5732 33.4416 100.033 33.5519 100.493 33.6439C100.99 33.7543 101.468 33.8646 101.909 34.0854C102.59 34.4349 102.884 34.9316 102.829 35.7042C102.774 36.4216 102.388 36.9367 101.689 37.1574C101.358 37.3046 100.953 37.3414 100.53 37.3414Z" fill="#7E8B98"/>
<path d="M52.2973 32.0803C51.5982 31.0318 50.2738 30.6823 49.1517 31.2709C48.6734 31.5101 48.3791 31.9331 48.2319 32.4298C47.956 33.4416 47.9376 34.4717 48.2503 35.5018C48.5078 36.348 49.1333 36.8263 50.0162 36.8815C50.329 36.8999 50.6417 36.8999 50.9544 36.8447C51.543 36.7343 52.0029 36.4216 52.2973 35.9065C52.3892 35.7594 52.4444 35.741 52.5732 35.8513C52.8307 36.0353 52.8307 36.0353 52.6468 36.2928C52.1501 37.047 51.4143 37.323 50.5497 37.3598C50.1818 37.3782 49.7955 37.3598 49.4276 37.2678C48.5446 37.0654 47.956 36.532 47.6984 35.6674C47.3673 34.5269 47.3673 33.3864 47.6984 32.2643C48.0112 31.2525 48.7286 30.7374 49.7587 30.6271C50.3841 30.5535 51.0096 30.5719 51.5982 30.811C52.0397 30.9766 52.3524 31.2709 52.61 31.6756C52.6836 31.786 52.702 31.8596 52.5548 31.9331C52.4996 31.9331 52.4076 32.0067 52.2973 32.0803Z" fill="#7E8B98"/>
<path d="M85.9423 7.24664C85.4272 7.46739 84.8754 7.50418 84.3235 7.4306C84.1763 7.4122 84.1395 7.37541 84.1395 7.22825C84.1395 7.06269 84.2499 7.09948 84.3419 7.09948C85.0409 7.08108 85.648 6.84195 86.1446 6.36367C86.2918 6.21651 86.4022 6.32688 86.5309 6.34527C86.6781 6.36367 86.6229 6.49243 86.6229 6.58441C86.6229 8.44234 86.6229 10.3187 86.6229 12.1766C86.6229 12.3605 86.6781 12.4157 86.8437 12.4157C87.23 12.4341 87.5979 12.4893 87.9842 12.5077C88.1865 12.5077 88.1313 12.6365 88.1313 12.7468C88.1497 12.8572 88.1129 12.9124 87.9842 12.9124C86.8436 12.9124 85.7031 12.9124 84.5626 12.9124C84.4339 12.9124 84.3787 12.8756 84.4155 12.7468C84.4339 12.6549 84.3603 12.5077 84.5626 12.4893C84.9673 12.4709 85.3904 12.4341 85.7951 12.3973C85.9055 12.3973 85.9607 12.3789 85.9607 12.2318C85.9607 10.5762 85.9607 8.93901 85.9607 7.28343C85.9607 7.30183 85.9423 7.28343 85.9423 7.24664Z" fill="#7E8B98"/>
<path d="M64.107 33.9382C64.107 32.9081 64.107 31.878 64.107 30.8478C64.107 30.7007 64.1438 30.6455 64.3094 30.6639C64.6773 30.6823 64.6773 30.6639 64.6773 31.0318C64.6773 32.8713 64.6773 34.7108 64.6773 36.5504C64.6773 36.7343 64.7141 36.7895 64.9164 36.7895C66.0937 36.7711 67.271 36.7895 68.4483 36.7711C68.6875 36.7711 68.6323 36.8999 68.6507 37.0286C68.6691 37.1758 68.6323 37.2494 68.4483 37.2494C67.0871 37.231 65.7074 37.231 64.3462 37.2494C64.1622 37.2494 64.1438 37.1942 64.1438 37.0286C64.1071 35.9985 64.107 34.9684 64.107 33.9382Z" fill="#7E8B98"/>
<path d="M62.102 33.9566C62.102 34.9868 62.102 36.0169 62.102 37.047C62.102 37.2126 62.0468 37.2494 61.8996 37.2494C61.5501 37.231 61.5501 37.2494 61.5501 36.8815C61.5501 34.8948 61.5501 32.8897 61.5501 30.903C61.5501 30.7007 61.5869 30.6455 61.8076 30.6455C62.1204 30.6639 62.1204 30.6455 62.1204 30.9582C62.102 31.9699 62.102 32.9633 62.102 33.9566Z" fill="#7E8B98"/>
<path d="M86.8437 4.39537C86.8437 4.70809 86.6045 4.96562 86.2734 4.96562C85.9423 4.96562 85.7031 4.72649 85.7031 4.39537C85.7031 4.08265 85.9423 3.84351 86.255 3.84351C86.5861 3.84351 86.8437 4.08265 86.8437 4.39537Z" fill="#7E8B98"/>
<path d="M96.9427 31.1054C96.9243 31.5652 96.8139 31.9699 96.3908 32.2275C96.3356 32.2643 96.2621 32.393 96.1885 32.2459C96.1333 32.1539 96.0781 32.0803 96.2253 31.9883C96.3908 31.8964 96.5012 31.7308 96.5564 31.5284C96.5932 31.3813 96.6667 31.2525 96.3908 31.2525C96.1885 31.2525 96.1333 31.0686 96.1333 30.8846C96.1333 30.7007 96.1885 30.5719 96.3908 30.5167C96.6116 30.4615 96.7955 30.5167 96.8875 30.6823C96.9427 30.811 96.9427 30.9582 96.9427 31.1054Z" fill="#7E8B98"/>
<path d="M16.408 32.4114C15.2675 32.3562 14.2374 32.6506 13.2072 32.9817C13.1336 33.0001 13.0601 33.0369 12.9865 33.0737C12.7473 33.2208 12.729 33.2944 12.8761 33.5519C13.0233 33.8095 13.152 34.0854 13.244 34.3613C13.3544 34.7292 13.1704 34.95 12.8025 34.9132C12.6002 34.8948 12.3978 34.8948 12.2139 34.8764C11.6988 34.8212 11.2757 34.9684 10.9078 35.3179C10.7423 35.465 10.5951 35.6306 10.3927 35.7226C10.0248 35.8881 9.84089 35.7778 9.82249 35.3915C9.8041 35.0236 9.67533 34.8948 9.30743 34.8764C9.12347 34.8764 8.92112 34.8948 8.73717 34.8948C8.64519 34.8948 8.51643 34.9132 8.47964 34.7844C8.44285 34.674 8.55322 34.6189 8.6268 34.5637C8.84754 34.4533 9.04989 34.3429 9.27064 34.2326C9.73052 33.9934 10.1904 33.7727 10.6503 33.5335C10.7974 33.46 10.9998 33.4048 10.9998 33.2024C11.0182 33.0001 10.8526 32.8713 10.7055 32.7609C9.7857 32.1539 9.27064 31.2709 8.92112 30.2776C8.64519 29.505 8.49803 28.714 8.40606 27.9046C8.31408 27.0768 8.31408 26.2306 8.33247 25.4028C8.36927 24.1335 8.53482 22.8827 8.77396 21.6502C8.81075 21.4478 8.86594 21.2455 8.84754 21.0431C8.84754 20.9511 8.81075 20.8776 8.73717 20.8408C8.66359 20.804 8.59001 20.8592 8.53482 20.896C8.46124 20.9695 8.40606 21.0431 8.35087 21.1351C7.89099 22.2756 7.50469 23.4345 7.32073 24.667C7.24715 25.1085 7.21036 25.5316 7.22876 25.9731C7.22876 26.1018 7.21036 26.2306 7.19197 26.3594C7.15517 26.5065 7.09999 26.6353 6.93443 26.6721C6.76887 26.7089 6.62171 26.6905 6.49294 26.5433C6.2538 26.2674 6.12504 25.9363 6.05146 25.5868C5.8859 24.8877 5.90429 24.1703 5.95948 23.4713C6.10664 21.4478 6.86085 19.6267 7.87259 17.8975C8.64519 16.5915 9.54657 15.359 10.4295 14.1265C10.9814 13.3355 11.5149 12.5261 11.9012 11.6431C12.2875 10.7601 12.4346 9.84038 12.1771 8.90222C12.0483 8.42394 11.8092 8.00085 11.4965 7.61455C10.871 6.82355 10.0616 6.29009 9.27064 5.71983C9.06829 5.57267 8.84754 5.4439 8.73717 5.18637C8.6268 4.94723 8.71878 4.76328 8.99471 4.74488C9.30743 4.72649 9.60175 4.80007 9.87768 4.89204C11.1102 5.27834 12.2875 5.16797 13.4832 4.74488C14.3845 4.43216 15.3227 4.39537 16.2057 4.81846C17.2726 5.33353 17.8428 6.2165 18.082 7.35701C18.2475 8.14801 18.2475 8.95741 18.3027 9.7484C18.3579 10.613 18.6338 11.404 18.9834 12.195C19.572 13.5194 20.4182 14.6967 21.1724 15.9108C22.1106 17.3825 22.9751 18.8909 23.5086 20.5648C23.7845 21.4294 23.9869 22.3308 24.0789 23.2506C24.1524 24.0048 24.2076 24.759 24.0789 25.4948C24.0421 25.7155 23.9685 25.9363 23.8397 26.1202C23.6742 26.3778 23.3614 26.3778 23.1959 26.1202C22.9935 25.8259 22.9567 25.4764 22.8648 25.1453C22.6072 24.1703 22.2577 23.2138 21.853 22.2756C21.5403 21.5766 21.2092 20.8776 20.8597 20.1785C20.8045 20.0682 20.7309 19.9578 20.6389 19.8658C20.547 19.7555 20.4366 19.7738 20.3446 19.8106C20.2342 19.8474 20.2342 19.9578 20.2342 20.0498C20.2342 20.2337 20.3078 20.4177 20.3814 20.6016C20.8781 22.0181 21.2276 23.4713 21.4667 24.9429C21.6323 25.9731 21.6875 27.0032 21.6323 28.0517C21.5587 29.3026 21.246 30.4983 20.5837 31.5652C20.3998 31.8596 20.271 32.1723 20.1791 32.5034C20.0135 33.1656 20.1791 33.5335 20.7677 33.883C21.0436 34.0486 21.3196 34.2142 21.5587 34.4349C21.6507 34.5269 21.7978 34.6373 21.7059 34.7844C21.6323 34.9316 21.4667 34.9316 21.3012 34.8948C20.9884 34.8212 20.6757 34.8212 20.363 34.8396C20.1423 34.858 20.0135 35.0236 19.8847 35.1707C19.8295 35.2443 19.7928 35.3179 19.7376 35.3915C19.4248 35.9065 19.0201 35.9065 18.7258 35.3915C18.5235 35.0236 18.2475 34.8212 17.8061 34.858C17.5669 34.8764 17.3278 34.8396 17.0886 34.8948C17.0151 34.9132 16.8863 34.95 16.8311 34.8396C16.7759 34.7476 16.8127 34.6556 16.8679 34.5821C17.0151 34.3429 17.2542 34.2142 17.4565 34.0486C17.6589 33.883 17.898 33.7359 18.1188 33.5887C18.2659 33.4967 18.2475 33.368 18.174 33.2392C17.9348 32.7793 17.5485 32.5402 17.0518 32.4298C16.8311 32.393 16.592 32.393 16.408 32.4114ZM15.1203 12.1582C14.9364 12.1582 14.7524 12.1398 14.5869 12.1582C13.5567 12.3237 12.8209 12.9124 12.3059 13.7954C11.7908 14.66 11.4965 15.6349 11.2573 16.5915C10.8894 18.0263 10.5767 19.4611 10.356 20.9144C10.2088 21.8709 10.0984 22.8275 10.0432 23.784C10.0064 24.1887 9.96966 24.5934 10.0064 24.9981C10.0432 25.4764 10.0064 25.9547 10.0248 26.4329C10.0616 27.1136 10.08 27.7942 10.172 28.4748C10.2272 28.9899 10.3376 29.4682 10.5399 29.9464C10.7607 30.4799 11.1102 30.9214 11.6436 31.1789C12.3978 31.5284 13.1888 31.5468 13.9982 31.2893C14.5685 31.1054 15.1203 30.9398 15.709 30.8846C16.3712 30.811 17.0335 30.8846 17.6773 31.0686C18.5971 31.3261 19.4064 31.0318 19.8111 30.1488C20.0871 29.5785 20.1423 28.9715 20.1607 28.3461C20.1791 27.7758 20.1423 27.2055 20.0871 26.6353C20.0135 25.8075 19.8479 25.0165 19.6272 24.2255C19.3145 23.085 19.0018 21.9629 18.8362 20.7856C18.7258 19.9394 18.5971 19.0748 18.5419 18.2286C18.4867 17.4928 18.5051 16.757 18.4499 16.0396C18.4131 15.4693 18.3395 14.9175 18.174 14.3656C17.9532 13.7034 17.6037 13.1147 17.0335 12.6917C16.408 12.287 15.801 12.0846 15.1203 12.1582ZM17.199 8.5895C17.199 8.46073 17.2174 8.33197 17.199 8.23999C17.1622 7.94566 17.1438 7.65134 16.9415 7.4122C16.8679 7.32022 16.7943 7.30183 16.7023 7.32022C16.592 7.33862 16.6104 7.4306 16.6104 7.48578C16.4264 8.33197 15.9665 8.9942 15.2491 9.49087C14.8444 9.7668 14.3845 9.95075 13.9614 10.1899C13.6671 10.3554 13.3728 10.521 13.244 10.8705C13.2072 10.9809 13.1704 11.1097 13.2624 11.2016C13.336 11.2936 13.4464 11.2936 13.5751 11.2568C14.2926 11.0729 15.01 10.9625 15.7458 10.8337C16.5184 10.705 16.8863 10.4842 17.107 9.65643C17.1622 9.28852 17.199 8.92061 17.199 8.5895ZM14.7892 8.05604C14.8996 8.05604 15.01 8.05604 15.1203 8.03764C15.801 7.8169 16.1689 7.15467 16.1505 6.6212C16.1321 5.8302 15.4882 5.40711 14.7524 5.60946C14.219 5.75662 13.6487 6.47404 13.7959 7.20985C13.9063 7.76171 14.2374 8.03764 14.7892 8.05604Z" fill="#7E8B98"/>
<path d="M14.6237 7.11788C14.6237 6.74997 14.918 6.41885 15.2675 6.40046C15.525 6.40046 15.709 6.60281 15.709 6.86034C15.709 7.22825 15.3963 7.55936 15.0652 7.57776C14.7892 7.59615 14.6237 7.4122 14.6237 7.11788Z" fill="#7E8B98"/>
</svg>
