<svg width="75" height="90" viewBox="0 -8 75 90" fill="none" xmlns="http://www.w3.org/2000/svg">
<path d="M74.6064 0.302246L0.12793 74.7808H74.6064V0.302246Z" fill="#7E8B98"/>
<path d="M65.4158 17.4761C65.196 17.643 65.1296 17.698 65.014 17.8131C64.6251 18.2025 64.3866 18.9371 64.7677 19.7314L64.7418 19.7574L63.9511 19.0574L62.8753 20.1332C63.2434 20.4573 63.6468 20.8399 64.2363 21.4294L66.9194 24.1255L68.1637 22.8811L66.1287 20.8461C66.0276 20.745 65.9462 20.6434 65.8824 20.548C65.576 20.0736 65.6445 19.5163 66.1028 19.0574C66.2428 18.9174 66.3511 18.821 66.5824 18.6426L65.4158 17.4761ZM62.3568 21.4424C61.7697 21.4273 61.1634 21.6507 60.594 22.2201C59.2055 23.608 59.7028 25.3734 60.7236 26.3938C61.9752 27.6454 63.5369 27.6635 64.8973 26.3031C65.4355 25.7644 65.857 25.1769 66.1028 24.5921L65.0918 23.9181C64.8688 24.3686 64.5811 24.7658 64.1585 25.1883C63.5757 25.7711 62.8214 26.0324 62.2661 25.5513L64.8455 22.9848C64.7672 22.863 64.6096 22.6577 64.3918 22.4404C63.833 21.8814 63.1117 21.4618 62.3568 21.4424ZM62.0068 22.8293C62.3615 22.8283 62.6886 23.0419 62.8753 23.2311L61.3976 24.7088C61.1 24.3422 60.831 23.6423 61.3588 23.1145C61.5718 22.9016 61.794 22.8299 62.0068 22.8293ZM58.2998 24.7088L57.2239 25.7976L57.6646 26.316L57.6387 26.329C57.1047 26.2025 56.5183 26.3088 55.9666 26.8604C54.981 27.8455 54.9691 29.5057 56.2648 30.8008C57.4147 31.9508 58.9297 32.0508 59.92 31.06C60.3825 30.5976 60.5836 30.0174 60.4903 29.4528L60.5033 29.4398L60.7625 29.6991C61.5044 30.441 61.3655 31.2083 60.7755 31.7989C60.3047 32.2691 59.7069 32.547 59.3108 32.6543L60.0107 33.8468C60.5696 33.6866 61.2302 33.249 61.7606 32.7192C62.3511 32.1286 62.8426 31.4147 62.9012 30.5934C62.9536 29.7353 62.4797 28.954 61.7087 28.1825L59.4663 25.9401C58.8675 25.3418 58.5403 24.9872 58.2998 24.7088ZM57.7683 27.2622C57.979 27.2454 58.1953 27.2957 58.4035 27.4178C58.489 27.4681 58.5829 27.5448 58.6627 27.6252L59.246 28.2214C59.3497 28.3256 59.4762 28.4615 59.5441 28.5843C59.7525 28.9582 59.7116 29.4279 59.3886 29.7509C58.8701 30.2694 58.1069 30.1024 57.5091 29.5046C56.7806 28.7762 56.7309 28.0016 57.1851 27.5474C57.3585 27.374 57.5577 27.2791 57.7683 27.2622ZM54.0483 28.8306C53.9348 28.9032 53.8788 28.9483 53.7631 29.0639C53.3738 29.4528 53.1358 30.1885 53.5169 30.9823L53.478 31.0212L52.6873 30.3212L51.6244 31.397C51.9926 31.7206 52.3825 32.0908 52.9725 32.6803L55.6556 35.3893L56.9129 34.132L54.8779 32.097C54.7762 31.9954 54.6824 31.8937 54.6186 31.7989C54.3117 31.3239 54.3931 30.7671 54.8519 30.3083C54.9919 30.1678 55.1024 30.0817 55.2278 29.9972L54.0483 28.8306ZM51.0412 31.9674L49.7839 33.2247L52.1818 35.6226C52.2819 35.7221 52.3607 35.8289 52.4021 35.9337C52.5255 36.2178 52.5603 36.6445 52.2207 36.9836C51.7805 37.4238 51.2397 37.2604 50.6523 36.6725L48.5006 34.5208L47.2434 35.7652L49.6024 38.1372C50.8369 39.3722 51.949 39.2773 52.7651 38.4612C53.4852 37.7411 53.4531 36.9608 53.3613 36.5558L53.3872 36.5299L54.0094 37.0354L55.0852 35.9596C54.7342 35.6428 54.2982 35.2249 53.7761 34.7023L51.0412 31.9674ZM46.5823 37.1002C46.0237 37.1094 45.5009 37.3389 45.0787 37.7613C44.5214 38.3181 44.3238 38.9538 44.4306 39.5371L44.4177 39.55L42.3827 37.528L41.1383 38.7723L45.5065 43.1404C45.9627 43.5962 46.4247 44.0887 46.673 44.3718L47.7359 43.3089L47.2304 42.6997L47.2434 42.6868C47.9988 42.8833 48.6277 42.5986 49.0969 42.1294C50.0172 41.2091 50.2069 39.5708 48.7599 38.1242C48.0734 37.4263 47.3006 37.0884 46.5823 37.1002ZM46.2842 38.8501C46.7068 38.8261 47.151 39.0558 47.5415 39.4463C48.2637 40.1686 48.357 40.912 47.8266 41.4424C47.4616 41.8074 46.9074 41.8365 46.4916 41.585C46.4122 41.5347 46.3251 41.4704 46.2453 41.3906L45.662 40.7944C45.5822 40.714 45.5101 40.6212 45.4546 40.5351C45.1705 40.0918 45.2275 39.5314 45.5713 39.1871C45.7886 38.9697 46.0306 38.8645 46.2842 38.8501ZM42.2142 41.0536C41.8212 41.1982 41.2514 41.5368 40.7365 42.0516C39.6451 43.143 39.5135 44.419 40.2699 45.1754C40.737 45.6535 41.5428 45.7629 42.7326 45.1236C43.3942 44.7741 43.6519 44.7078 43.8603 44.9162C44.0656 45.1215 44.0008 45.4502 43.5881 45.8624C43.1899 46.2606 42.4999 46.622 42.1105 46.7309L42.7586 47.8715C43.2589 47.7004 43.8961 47.3043 44.4695 46.7309C45.7299 45.4699 45.8176 44.2806 45.0658 43.5293C44.4737 42.9476 43.7359 42.9019 42.6419 43.4774C41.9326 43.8461 41.6293 43.9425 41.4365 43.7496C41.2337 43.5474 41.3234 43.2151 41.6568 42.8812C42.0291 42.5095 42.5434 42.2585 42.8363 42.1553L42.2142 41.0536ZM38.2997 45.1754C37.8364 45.2051 37.4142 45.4128 37.0554 45.7717C36.385 46.4426 36.3627 47.2436 36.4591 47.6641L36.4332 47.69L35.824 47.1975L34.7352 48.2733C35.1127 48.616 35.557 49.0308 36.0573 49.5306L38.7923 52.2655L40.0366 51.0083L37.7164 48.6881C37.605 48.5761 37.5033 48.448 37.4572 48.3381C37.3125 48.0203 37.269 47.5796 37.6127 47.2364C38.0628 46.7858 38.6118 46.9522 39.1293 47.4697L41.3457 49.6991L42.603 48.4418L40.2181 46.0698C39.5531 45.4046 38.8954 45.1373 38.2997 45.1754ZM34.1908 49.6084C33.6037 49.5933 32.9976 49.8165 32.428 50.3861C31.0401 51.774 31.5368 53.5389 32.5576 54.5598C33.8087 55.8114 35.3833 55.8166 36.7443 54.4561C37.2825 53.9179 37.7035 53.3434 37.9497 52.7581L36.9258 52.0711C36.7023 52.5212 36.4151 52.9318 35.9925 53.3543C35.4103 53.9371 34.6559 54.1984 34.1001 53.7173L36.6924 51.1508C36.6142 51.029 36.4436 50.8112 36.2258 50.5935C35.6667 50.0347 34.9457 49.6277 34.1908 49.6084ZM33.8408 50.9953C34.1954 50.9942 34.5226 51.2079 34.7093 51.3971L33.2316 52.8748C32.934 52.5077 32.665 51.8083 33.1928 51.2804C33.4057 51.0674 33.6281 50.9959 33.8408 50.9953ZM30.6782 52.3304L29.369 53.6525L30.7171 56.0374C30.9711 56.474 31.1992 56.8369 31.4688 57.2299L31.4429 57.2558C31.0592 56.9971 30.674 56.7581 30.2375 56.517L27.8266 55.1819L26.4785 56.5429L31.9484 59.0964L33.2057 57.8521L30.6782 52.3304ZM26.2841 57.3466C25.7587 57.3736 25.1973 57.63 24.612 58.215C23.8784 58.9486 23.531 59.6927 23.3807 60.25L24.4047 60.8203C24.542 60.2744 24.8381 59.7129 25.2472 59.3038C25.8667 58.6816 26.2914 58.8698 26.5045 59.0835L26.5563 59.1353C25.1336 60.5549 24.6934 61.9776 25.7397 63.0238C26.3816 63.6657 27.4496 63.7767 28.2673 62.959C28.7427 62.4836 28.9859 61.9076 28.9283 61.3258L28.9542 61.2999L29.4209 61.624L30.5485 60.4963C30.2795 60.3143 29.8948 59.9721 29.5116 59.589L28.1117 58.1891C27.5812 57.6583 26.9596 57.3118 26.2841 57.3466ZM21.0994 59.8482C21.031 59.8518 20.9736 59.8627 20.905 59.8741C20.1532 60.0001 19.3801 60.5181 18.4681 61.4295C17.7293 62.1689 17.1948 62.8139 16.835 63.309L22.2919 68.7659L23.5362 67.5086L21.3716 65.331L21.8123 64.8903C22.3909 64.3252 22.9068 64.1894 23.7695 64.7089C24.6286 65.2191 25.2259 65.499 25.4805 65.5644L26.7637 64.2811C26.4293 64.1873 25.5059 63.6019 24.6898 63.1664C24.0267 62.8128 23.5082 62.662 22.927 62.9331L22.9011 62.9072C23.2583 62.2083 23.2651 61.1973 22.5641 60.4963C22.0664 59.9986 21.5784 59.8232 21.0994 59.8482ZM27.3729 59.8741L27.8136 60.3148C27.8846 60.3853 27.9624 60.4641 28.008 60.5481C28.1838 60.8877 28.1195 61.3569 27.8136 61.6628C27.5295 61.947 27.165 61.9993 26.8415 61.6758C26.3634 61.1978 26.7124 60.5279 27.3729 59.8741ZM20.7753 61.5851C21.003 61.5971 21.2205 61.6934 21.4105 61.8832C21.8911 62.3643 21.763 63.1384 21.0735 63.8275L20.4643 64.4367L18.9348 62.9072C19.0105 62.7869 19.25 62.5142 19.5829 62.1813C19.9814 61.7866 20.3959 61.565 20.7753 61.5851Z" fill="#25282FEB"/>
</svg>
