<svg width="72" height="90" viewBox="0 0 72 90" fill="none" xmlns="http://www.w3.org/2000/svg">
<path d="M53.4977 25.06C53.4977 21.3346 49.2351 18.2597 43.591 17.8754V37.3299C50.7491 33.1611 53.4977 28.9775 53.4977 25.06Z" fill="#7E8B98"/>
<path d="M52.7474 39.03C50.8072 39.03 49.0434 39.7839 43.5756 43.6867V64.723C53.0267 54.1088 55.7018 46.8503 55.7018 43.1249C55.7165 40.5231 54.5112 39.03 52.7474 39.03Z" fill="#7E8B98"/>
<path d="M70.2542 16.811C70.166 16.4414 70.0779 16.3084 69.8868 16.2492L63.2137 14.4605L62.2877 10.6464C62.2436 10.4543 62.1995 10.3212 62.0084 10.2769L55.159 8.41419L54.3212 4.77755C54.3065 4.55581 54.1595 4.37841 53.9537 4.31928L36.1539 0.99308C35.86 0.933947 35.566 0.933947 35.272 0.99308L17.4723 4.30449C17.2665 4.36363 17.1048 4.54102 17.0901 4.76277L16.2523 8.39941L9.41755 10.2621C9.22647 10.3064 9.18237 10.4543 9.13828 10.6317L8.21228 14.4457L1.5539 16.2492C1.36282 16.2936 1.27463 16.4414 1.18644 16.811C0.627903 19.7824 0.348633 22.8129 0.348633 25.8435C0.348633 52.66 14.2386 75.9434 34.9781 89.8247C35.1985 90.0021 35.4484 90.1351 35.713 90.2091C35.9923 90.1351 36.2421 90.0169 36.4626 89.8247C57.2021 75.9434 71.092 52.66 71.092 25.8435C71.092 22.8129 70.8128 19.7824 70.2542 16.811ZM32.7586 77.5991C27.6583 71.7302 24.2482 64.5604 21.9259 56.7401L18.413 58.9428C17.487 59.5933 16.7521 59.3124 16.1935 58.2924C11.4606 49.9251 8.40336 36.1473 8.13879 26.4644C8.12409 26.0209 8.28577 25.5921 8.59444 25.2669C9.8585 23.7443 11.2108 22.3103 12.6512 20.9798C12.9305 20.6989 13.2097 20.8911 13.2097 21.3494C13.2097 33.2646 15.2381 44.3519 18.4865 51.6104C18.7657 52.1721 19.045 52.1722 19.4125 51.8913L20.4267 51.2408C18.4865 42.5779 17.3694 31.0323 17.6487 17.7128C17.6487 17.2397 17.7368 17.0623 18.0161 16.8701C19.4419 15.9831 20.9117 15.1996 22.455 14.5344C22.9254 14.3422 23.0136 14.4457 23.0136 14.8153C22.7343 34.1811 24.307 47.5894 27.7318 58.3071C27.8199 58.588 28.0992 58.4993 28.0992 58.2184C27.9081 54.3157 27.9081 50.8565 27.9081 46.6728L27.7171 13.2483C27.7171 12.8787 27.8053 12.6865 28.1874 12.5978C29.716 12.2134 31.2594 11.9474 32.8174 11.7552C32.8909 11.7404 32.9644 11.77 33.0232 11.8291C33.082 11.8882 33.1114 11.9621 33.0967 12.0361L33.1114 77.5252C33.1261 77.7026 32.935 77.7913 32.7586 77.5991ZM38.6821 77.5843V77.6139C38.491 77.806 38.3146 77.7026 38.3146 77.5252V12.0361C38.2999 11.9621 38.3293 11.8734 38.3881 11.8291C38.4469 11.77 38.5204 11.7552 38.5939 11.7552C50.9993 12.5978 58.9512 17.8015 58.9512 25.3556C58.9512 28.4896 57.79 31.5054 55.7175 33.8263C59.789 34.9498 61.3617 38.0099 61.3617 42.1049C61.3617 49.3781 56.0997 61.382 38.6821 77.5843Z" fill="#7E8B98"/>
</svg>
